<svg width="16" height="16" viewBox="0 0 16 16" fill="none" xmlns="http://www.w3.org/2000/svg">
<g clip-path="url(#clip0_201_9096)">
<path d="M7.60577 13.1438C7.52764 13.2225 7.47423 13.3228 7.45208 13.4315L7.00552 15.6634C6.96645 15.86 7.14098 16.0331 7.33645 15.994L9.56927 15.5474C9.67736 15.526 9.77786 15.4726 9.85598 15.3938L13.7716 11.4782L11.5216 9.22816L7.60577 13.1438ZM15.6714 7.99063L15.0123 7.33126C14.5723 6.89188 13.8601 6.89188 13.4211 7.33126L12.2298 8.52344L14.4798 10.7734L15.6711 9.58188C16.1089 9.14063 16.1089 8.42813 15.6714 7.99063Z" fill="#0070CC"/>
<path fill-rule="evenodd" clip-rule="evenodd" d="M1.41421 2.99997C1.149 2.99997 0.894643 3.10533 0.707107 3.29286L0.292893 3.70708C0.105357 3.89461 0 4.14897 0 4.41418V6.99997C0 7.55225 0.447715 7.99997 1 7.99997H3.58579C3.851 7.99997 4.10536 7.89461 4.29289 7.70708L4.70711 7.29286C4.89464 7.10533 5 6.85097 5 6.58576V3.99997C5 3.44768 4.55228 2.99997 4 2.99997H1.41421Z" fill="#80B7E5"/>
<path fill-rule="evenodd" clip-rule="evenodd" d="M7.41421 2.99997C7.149 2.99997 6.89464 3.10533 6.70711 3.29286L6.29289 3.70708C6.10536 3.89461 6 4.14897 6 4.41418V6.99997C6 7.55225 6.44772 7.99997 7 7.99997H9.58579C9.851 7.99997 10.1054 7.89461 10.2929 7.70708L10.7071 7.29286C10.8946 7.10533 11 6.85097 11 6.58576V3.99997C11 3.44768 10.5523 2.99997 10 2.99997H7.41421Z" fill="#80B7E5"/>
<path d="M3 0.999969C3 0.447685 3.44772 -3.05176e-05 4 -3.05176e-05H7C7.55228 -3.05176e-05 8 0.447685 8 0.999969C8 1.55225 7.55228 1.99997 7 1.99997H4C3.44772 1.99997 3 1.55225 3 0.999969Z" fill="#80B7E5"/>
<path d="M10 -3.05176e-05C9.44772 -3.05176e-05 9 0.447685 9 0.999969C9 1.55225 9.44772 1.99997 10 1.99997H11.5C11.7761 1.99997 12 2.22383 12 2.49997V3.99997C12 4.55225 12.4477 4.99997 13 4.99997C13.5523 4.99997 14 4.55225 14 3.99997V0.999969C14 0.447685 13.5523 -3.05176e-05 13 -3.05176e-05H10Z" fill="#80B7E5"/>
</g>
<defs>
<clipPath id="clip0_201_9096">
<rect width="16" height="16" fill="white"/>
</clipPath>
</defs>
</svg>
