<svg width="16" height="16" viewBox="0 0 16 16" fill="none" xmlns="http://www.w3.org/2000/svg">
<path d="M2 2C2 0.895313 2.89531 0 4 0H9V5H14V14C14 15.1031 13.1031 16 12 16H4C2.89531 16 2 15.1031 2 14V2Z" fill="#B7A9D1"/>
<path d="M9 5V0L14 5H9Z" fill="#523681"/>
<path d="M4.48215 12.014C4.20215 12.014 4.06215 11.937 4.06215 11.783V8.017H3.27815C3.13815 8.017 3.06815 7.90033 3.06815 7.667V7.45C3.06815 7.21667 3.13815 7.1 3.27815 7.1H5.93115C6.07115 7.1 6.14115 7.21667 6.14115 7.45V7.667C6.14115 7.90033 6.07115 8.017 5.93115 8.017H5.14715V11.783C5.14715 11.937 5.00715 12.014 4.72715 12.014H4.48215Z" fill="#523681"/>
<path d="M6.71132 12.014C6.48732 12.014 6.37532 11.9673 6.37532 11.874C6.37532 11.8507 6.37998 11.825 6.38932 11.797C6.39865 11.769 6.41032 11.7387 6.42432 11.706L7.36932 9.445L6.55732 7.394C6.53398 7.33333 6.52232 7.28667 6.52232 7.254C6.52232 7.20267 6.54565 7.163 6.59232 7.135C6.64365 7.10233 6.72765 7.086 6.84432 7.086H7.18732C7.28065 7.086 7.36232 7.09767 7.43232 7.121C7.50232 7.13967 7.55132 7.19333 7.57932 7.282L8.05532 8.822L8.58732 7.226C8.61065 7.16067 8.65498 7.121 8.72032 7.107C8.79032 7.093 8.87665 7.086 8.97932 7.086H9.29432C9.49965 7.086 9.60232 7.13033 9.60232 7.219C9.60232 7.25167 9.58365 7.31 9.54632 7.394L8.69932 9.459L9.58832 11.706C9.61632 11.776 9.63032 11.832 9.63032 11.874C9.63032 11.9673 9.52065 12.014 9.30132 12.014H8.98632C8.84632 12.014 8.75065 12.0023 8.69932 11.979C8.64798 11.951 8.60832 11.8973 8.58032 11.818L8.02732 10.145L7.41832 11.811C7.38565 11.895 7.34365 11.951 7.29232 11.979C7.24098 12.0023 7.14765 12.014 7.01232 12.014H6.71132Z" fill="#523681"/>
<path d="M11.2697 12.014C10.9897 12.014 10.8497 11.937 10.8497 11.783V8.017H10.0657C9.92568 8.017 9.85568 7.90033 9.85568 7.667V7.45C9.85568 7.21667 9.92568 7.1 10.0657 7.1H12.7187C12.8587 7.1 12.9287 7.21667 12.9287 7.45V7.667C12.9287 7.90033 12.8587 8.017 12.7187 8.017H11.9347V11.783C11.9347 11.937 11.7947 12.014 11.5147 12.014H11.2697Z" fill="#523681"/>
</svg>
