<svg width="16" height="16" viewBox="0 0 16 16" fill="none" xmlns="http://www.w3.org/2000/svg">
<g clip-path="url(#clip0_201_8929)">
<path d="M5 2C5 0.895313 5.89688 0 7 0H14C15.1031 0 16 0.895313 16 2V9C16 10.1031 15.1031 11 14 11H7C5.89688 11 5 10.1031 5 9V2Z" fill="#0070CC"/>
<path d="M0 7C0 5.89688 0.895313 5 2 5H4V9C4 10.6562 5.31562 12 7 12H11V14C11 15.1031 10.1031 16 9 16H2C0.895313 16 0 15.1031 0 14V7Z" fill="#80B7E5"/>
</g>
<defs>
<clipPath id="clip0_201_8929">
<rect width="16" height="16" fill="white"/>
</clipPath>
</defs>
</svg>
