<svg width="16" height="16" viewBox="0 0 16 16" fill="none" xmlns="http://www.w3.org/2000/svg">
<path fill-rule="evenodd" clip-rule="evenodd" d="M2 3.05176e-05H14C14.5523 3.05176e-05 15 0.447746 15 1.00003C15 1.55232 14.5523 2.00003 14 2.00003H13.5146L9.22892 8.00005L13.5146 14H14C14.5523 14 15 14.4477 15 15C15 15.5523 14.5523 16 14 16H13.0148C13.0055 16.0002 12.9962 16.0002 12.987 16H3.01297C3.00378 16.0002 2.99458 16.0002 2.98537 16H2C1.44772 16 1 15.5523 1 15C1 14.4477 1.44772 14 2 14H2.48541L6.77111 8.00005L2.48539 2.00003H2C1.44772 2.00003 1 1.55232 1 1.00003C1 0.447746 1.44772 3.05176e-05 2 3.05176e-05ZM4.94322 14H11.0568L8.00002 9.72051L4.94322 14ZM8.00002 6.27958L4.94319 2.00003H11.0568L8.00002 6.27958Z" fill="#7E5DBB"/>
</svg>
