<svg width="16" height="16" viewBox="0 0 16 16" fill="none" xmlns="http://www.w3.org/2000/svg">
<path d="M2 2C2 0.895313 2.89531 0 4 0H9V5H14V14C14 15.1031 13.1031 16 12 16H4C2.89531 16 2 15.1031 2 14V2Z" fill="#80B7E5"/>
<path d="M9.00002 5V0L14 5H9.00002Z" fill="#00437A"/>
<path d="M3.37551 11.6782C3.12391 11.6782 2.99811 11.609 2.99811 11.4706V7.45757C2.99811 7.31919 3.12391 7.25 3.37551 7.25H3.56421C3.71936 7.25 3.82629 7.26258 3.885 7.28774C3.9479 7.3129 3.99402 7.35903 4.02338 7.42612L4.65238 8.84766C4.68592 8.92733 4.71318 9.00281 4.73415 9.0741C4.75511 9.14539 4.77398 9.21038 4.79076 9.26909C4.80334 9.21038 4.81801 9.14539 4.83479 9.0741C4.85575 9.00281 4.88511 8.92733 4.92285 8.84766L5.55814 7.42612C5.58749 7.35903 5.63152 7.3129 5.69023 7.28774C5.75313 7.26258 5.86215 7.25 6.01731 7.25H6.20601C6.45761 7.25 6.58341 7.31919 6.58341 7.45757V11.4706C6.58341 11.609 6.45761 11.6782 6.20601 11.6782H6.05505C5.80345 11.6782 5.67765 11.609 5.67765 11.4706V9.61504C5.67765 9.55633 5.67974 9.49763 5.68394 9.43892C5.68813 9.38021 5.69652 9.3236 5.7091 9.26909L5.68394 9.2628C5.66716 9.31312 5.6462 9.36344 5.62104 9.41376C5.60007 9.45989 5.5791 9.50811 5.55814 9.55843L5.2059 10.3636C5.15977 10.4642 5.03816 10.5145 4.84108 10.5145H4.73415C4.52867 10.5145 4.40287 10.4642 4.35675 10.3636L4.02338 9.55843C4.0066 9.5123 3.98773 9.46408 3.96677 9.41376C3.9458 9.36344 3.92483 9.31312 3.90387 9.2628L3.87871 9.26909C3.88709 9.3236 3.89338 9.38021 3.89758 9.43892C3.90177 9.49763 3.90387 9.55633 3.90387 9.61504V11.4706C3.90387 11.609 3.77807 11.6782 3.52647 11.6782H3.37551Z" fill="#00437A"/>
<path d="M8.168 11.6782C7.9164 11.6782 7.7906 11.609 7.7906 11.4706V8.08657H7.08612C6.96032 8.08657 6.89742 7.98174 6.89742 7.77207V7.57708C6.89742 7.36741 6.96032 7.26258 7.08612 7.26258H9.47003C9.59583 7.26258 9.65873 7.36741 9.65873 7.57708V7.77207C9.65873 7.98174 9.59583 8.08657 9.47003 8.08657H8.76555V11.4706C8.76555 11.609 8.63975 11.6782 8.38815 11.6782H8.168Z" fill="#00437A"/>
<path d="M10.3535 11.6782C10.1019 11.6782 9.97608 11.609 9.97608 11.4706V7.45757C9.97608 7.31919 10.1019 7.25 10.3535 7.25H10.5736C10.8252 7.25 10.951 7.31919 10.951 7.45757V9.00491H12.0266V7.45757C12.0266 7.31919 12.1524 7.25 12.404 7.25H12.6242C12.8758 7.25 13.0016 7.31919 13.0016 7.45757V11.4706C13.0016 11.609 12.8758 11.6782 12.6242 11.6782H12.404C12.1524 11.6782 12.0266 11.609 12.0266 11.4706V9.8289H10.951V11.4706C10.951 11.609 10.8252 11.6782 10.5736 11.6782H10.3535Z" fill="#00437A"/>
</svg>
