<svg width="16" height="16" viewBox="0 0 16 16" fill="none" xmlns="http://www.w3.org/2000/svg">
<path d="M14.6531 1.0035C15.0866 1.0035 15.5025 1.34006 15.5025 1.8485V6.40787C15.5025 6.73881 15.2342 7.00694 14.9034 7.00694H10.3503C9.84156 7.00694 9.50468 6.59069 9.50468 6.15694C9.50468 5.94962 9.58159 5.73819 9.75343 5.56631L14.0378 1.25381C14.2344 1.08037 14.4469 1.0035 14.6531 1.0035Z" fill="#D27614"/>
<path d="M11.5938 11.8001C12.1713 11.8001 12.5928 12.2701 12.5928 12.7988C12.5928 13.8938 10.0431 14.9991 7.99906 14.9991C4.14281 14.9991 1.00219 11.8585 1.00219 8.00225C1.00219 4.146 4.14281 1.03037 7.99906 1.03037C9.70531 1.03037 11.3209 1.67881 12.5772 2.76881L11.1634 4.1835C10.2816 3.46037 9.16813 3.0385 7.99781 3.0385C5.245 3.0385 3.00406 5.27881 3.00406 8.03225C3.00406 10.7857 5.24375 12.9969 7.99688 12.9969C10.2813 12.9969 10.7906 11.8001 11.5938 11.8001Z" fill="#D27614"/>
</svg>
