<svg width="16" height="16" viewBox="0 0 16 16" fill="none" xmlns="http://www.w3.org/2000/svg">
<g clip-path="url(#clip0_201_9104)">
<path d="M11.8344 0.585891C12.6157 -0.195297 13.8844 -0.195297 14.6657 0.585891L15.3969 1.31808C16.1782 2.09902 16.1782 3.36652 15.3969 4.14777L13.6344 5.91027L10.0719 2.34839L11.8344 0.585891ZM12.9282 6.61652L4.96253 14.579C4.75316 14.7884 4.49378 14.9415 4.20628 15.0259L0.955968 15.954C0.694093 16.029 0.412218 15.954 0.219718 15.7353C0.0272176 15.5696 -0.0459075 15.2884 0.02878 15.0259L0.957843 11.7759C1.03941 11.4884 1.19253 11.229 1.40284 11.0196L9.36566 3.05527L12.9282 6.61652Z" fill="#D27614"/>
</g>
<defs>
<clipPath id="clip0_201_9104">
<rect width="16" height="16" fill="white"/>
</clipPath>
</defs>
</svg>
