<svg width="16" height="16" viewBox="0 0 16 16" fill="none" xmlns="http://www.w3.org/2000/svg">
<path d="M12.7063 11.2938C13.0969 11.6844 13.0969 12.3173 12.7063 12.7079C12.5125 12.9032 12.2562 13.0001 12 13.0001C11.7438 13.0001 11.4881 12.9024 11.2931 12.7071L8 9.41569L4.70719 12.7063C4.51188 12.9032 4.25594 13.0001 4 13.0001C3.74406 13.0001 3.48844 12.9032 3.29297 12.7063C2.90234 12.3157 2.90234 11.6829 3.29297 11.2923L6.58672 7.9985L3.29297 4.70631C2.90234 4.31569 2.90234 3.68288 3.29297 3.29225C3.68359 2.90163 4.31641 2.90163 4.70703 3.29225L8 6.58756L11.2937 3.29381C11.6844 2.90319 12.3172 2.90319 12.7078 3.29381C13.0984 3.68444 13.0984 4.31725 12.7078 4.70788L9.41406 8.00163L12.7063 11.2938Z" fill="#D27614"/>
</svg>
