<svg width="16" height="16" viewBox="0 0 16 16" fill="none" xmlns="http://www.w3.org/2000/svg">
<path d="M2 3H14L13.3313 14.5875C13.2844 15.3812 12.6281 16 11.8344 16H4.16563C3.37094 16 2.71437 15.3812 2.66844 14.5875L2 3Z" fill="#E8939A"/>
<path d="M9.88125 0C10.2594 0 10.6062 0.214 10.775 0.552813L11 1H14C14.5531 1 15 1.44781 15 2C15 2.55219 14.5531 3 14 3H2C1.44781 3 1 2.55219 1 2C1 1.44781 1.44781 1 2 1H5L5.225 0.552813C5.39375 0.214 5.74062 0 6.11875 0H9.88125Z" fill="#CC0F1F"/>
<path d="M5.5 6.75C5.5 6.33579 5.83579 6 6.25 6C6.66421 6 7 6.33579 7 6.75V12.25C7 12.6642 6.66421 13 6.25 13C5.83579 13 5.5 12.6642 5.5 12.25V6.75Z" fill="#CC0F1F"/>
<path d="M9.75 6C9.33579 6 9 6.33579 9 6.75V12.25C9 12.6642 9.33579 13 9.75 13C10.1642 13 10.5 12.6642 10.5 12.25V6.75C10.5 6.33579 10.1642 6 9.75 6Z" fill="#CC0F1F"/>
</svg>
