<svg width="16" height="16" viewBox="0 0 16 16" fill="none" xmlns="http://www.w3.org/2000/svg">
<path fill-rule="evenodd" clip-rule="evenodd" d="M8.08438 1.7928L4.69063 5.19061L0.792813 9.08436C0.0118317 9.86561 0.0118317 11.1344 0.792813 11.9156L3.29375 14.4156C3.66875 14.7906 4.17813 15 4.70625 15H15C15.5531 15 16 14.5531 16 14C16 13.4469 15.5531 13 15 13H11.1219L11.8094 12.3094L15.2063 8.91561C15.9875 8.13436 15.9875 6.86561 15.2063 6.08436L10.9156 1.7928C10.1344 1.01186 8.86563 1.01186 8.08438 1.7928ZM10.3969 10.8969L8.29375 13H4.70625L2.20719 10.5L6.10313 6.60311L10.3969 10.8969Z" fill="#D27614"/>
</svg>
