<svg width="16" height="16" viewBox="0 0 16 16" fill="none" xmlns="http://www.w3.org/2000/svg">
<g clip-path="url(#clip0_365_17983)">
<path d="M7.60577 13.1438C7.52764 13.2226 7.47423 13.3228 7.45208 13.4316L7.00552 15.6634C6.96645 15.86 7.14098 16.0331 7.33645 15.9941L9.56927 15.5475C9.67736 15.526 9.77786 15.4726 9.85598 15.3938L13.7716 11.4782L11.5216 9.22822L7.60577 13.1438ZM15.6714 7.99069L15.0123 7.33132C14.5723 6.89194 13.8601 6.89194 13.4211 7.33132L12.2298 8.5235L14.4798 10.7735L15.6711 9.58194C16.1089 9.14069 16.1089 8.42819 15.6714 7.99069Z" fill="#0070CC"/>
<path d="M0 1.00006C0 0.447776 0.447715 6.10352e-05 1 6.10352e-05H5C5.55228 6.10352e-05 6 0.447776 6 1.00006V7.00006C6 7.55235 5.55228 8.00006 5 8.00006H1C0.447715 8.00006 0 7.55235 0 7.00006V1.00006Z" fill="#80B7E5"/>
<path d="M0 10.0001C0 9.44778 0.447715 9.00006 1 9.00006H5C5.55228 9.00006 6 9.44778 6 10.0001V13.0001C6 13.5523 5.55228 14.0001 5 14.0001H1C0.447715 14.0001 0 13.5523 0 13.0001V10.0001Z" fill="#80B7E5"/>
<path d="M7 1.00006C7 0.447776 7.44772 6.10352e-05 8 6.10352e-05H12C12.5523 6.10352e-05 13 0.447776 13 1.00006V4.00006C13 4.55235 12.5523 5.00006 12 5.00006H8C7.44772 5.00006 7 4.55235 7 4.00006V1.00006Z" fill="#80B7E5"/>
<path d="M7 7.00006C7 6.44778 7.44772 6.00006 8 6.00006H12C12.0621 6.00006 12.1228 6.00572 12.1818 6.01654C12.6653 6.10533 12.6011 6.74268 12.2521 7.08901C11.9893 7.34981 11.7364 7.60177 11.7137 7.62449L11.5234 7.81576L11.5216 7.81403L7.85354 11.4819C7.53856 11.7969 7 11.5738 7 11.1283V7.00006Z" fill="#80B7E5"/>
</g>
<defs>
<clipPath id="clip0_365_17983">
<rect width="16" height="16" fill="white"/>
</clipPath>
</defs>
</svg>
