<svg width="16" height="16" viewBox="0 0 16 16" fill="none" xmlns="http://www.w3.org/2000/svg">
<path d="M2 2C2 0.895313 2.89531 0 4 0H9V5H14V14C14 15.1031 13.1031 16 12 16H4C2.89531 16 2 15.1031 2 14V2Z" fill="#87BD9B"/>
<path d="M9.00002 5V0L14 5H9.00002Z" fill="#0A4D21"/>
<path d="M6.34313 12.836C6.05513 12.836 5.91113 12.776 5.91113 12.656C5.91113 12.626 5.91713 12.593 5.92913 12.557C5.94113 12.521 5.95613 12.482 5.97413 12.44L7.18913 9.533L6.14513 6.896C6.11513 6.818 6.10013 6.758 6.10013 6.716C6.10013 6.65 6.13013 6.599 6.19013 6.563C6.25613 6.521 6.36413 6.5 6.51413 6.5H6.95513C7.07513 6.5 7.18013 6.515 7.27013 6.545C7.36013 6.569 7.42313 6.638 7.45913 6.752L8.07113 8.732L8.75513 6.68C8.78513 6.596 8.84213 6.545 8.92613 6.527C9.01613 6.509 9.12713 6.5 9.25913 6.5H9.66413C9.92813 6.5 10.0601 6.557 10.0601 6.671C10.0601 6.713 10.0361 6.788 9.98813 6.896L8.89913 9.551L10.0421 12.44C10.0781 12.53 10.0961 12.602 10.0961 12.656C10.0961 12.776 9.95513 12.836 9.67313 12.836H9.26813C9.08813 12.836 8.96513 12.821 8.89913 12.791C8.83313 12.755 8.78213 12.686 8.74613 12.584L8.03513 10.433L7.25213 12.575C7.21013 12.683 7.15613 12.755 7.09013 12.791C7.02413 12.821 6.90413 12.836 6.73013 12.836H6.34313Z" fill="#0A4D21"/>
</svg>
