<svg width="16" height="16" viewBox="0 0 16 16" fill="none" xmlns="http://www.w3.org/2000/svg">
<path d="M14.0594 1.24875L12.5438 2.76531C11.3281 1.66219 9.73125 1 8 1C5.04688 1 2.45594 2.88563 1.54938 5.69375C1.37944 6.21906 1.66803 6.78375 2.19344 6.9525C2.72375 7.12438 3.28281 6.83338 3.45281 6.30906C4.09062 4.32813 5.91875 3 8 3C9.18625 3 10.2813 3.44313 11.1313 4.18125L9.72188 5.5625C9.22188 6.0875 9.5875 6.98125 10.325 7H14.9156C15.2406 6.99063 15.5 6.72813 15.5 6.40313V1.845C15.5 1.09344 14.5906 0.717188 14.0594 1.24875Z" fill="#D27614"/>
<path d="M14.45 10.3062C13.5437 13.1156 10.95 15 7.97188 15C6.24031 15 4.64375 14.3378 3.42812 13.2347L1.9125 14.7513C1.40844 15.2813 0.5 14.9063 0.5 14.1281V9.59688C0.5 9.27188 0.76 9.00938 1.08312 9H5.67375C6.41031 9.01807 6.77563 9.91094 6.24969 10.4375L4.86906 11.8188C5.71875 12.5563 6.8125 13 8 13C10.0806 13 11.9094 11.6709 12.5469 9.69375C12.7163 9.16938 13.2769 8.88031 13.8062 9.05031C14.3312 9.19062 14.6219 9.78125 14.45 10.3062Z" fill="#D27614"/>
</svg>
