<svg width="16" height="16" viewBox="0 0 16 16" fill="none" xmlns="http://www.w3.org/2000/svg">
<g clip-path="url(#clip0_201_8930)">
<path d="M11.7071 7.29289C11.8946 7.10536 12 6.851 12 6.58579V3.5C12 2.67156 11.3281 2 10.5 2H8C9.10469 2 10 2.89531 10 4V4.5C10 4.775 9.775 5 9.5 5H2.5C2.22375 5 2 4.775 2 4.5V4C2 2.89531 2.89531 2 4 2H1.5C0.671562 2 0 2.67156 0 3.5V14.5C0 15.3281 0.671562 16 1.5 16H4.807C5.22384 16 5.59696 15.7414 5.74333 15.3511L6.84789 12.4056C6.94813 12.1383 7.10445 11.8955 7.30633 11.6937L11.7071 7.29289Z" fill="#B7A9D1"/>
<path d="M15.6344 9.58438C16.1219 9.09688 16.1219 8.30313 15.6344 7.81563L15.1844 7.36562C14.6937 6.87813 13.9031 6.87813 13.4156 7.36562L12.4969 8.2875L14.7125 10.5031L15.6344 9.58438Z" fill="#7E5DBB"/>
<path d="M11.7875 8.99375L7.74687 13.0344C7.61875 13.1625 7.52812 13.3219 7.48437 13.4969L7.01562 15.3781C6.97187 15.55 7.02187 15.7281 7.14687 15.8531C7.27187 15.9781 7.45 16.0281 7.62187 15.9844L9.50312 15.5156C9.67812 15.4719 9.83749 15.3813 9.96562 15.2531L14.0062 11.2125L11.7875 8.99375Z" fill="#7E5DBB"/>
<path fill-rule="evenodd" clip-rule="evenodd" d="M6 0C7.10469 0 8 0.895313 8 2C9.10312 2 10 2.89531 10 4V4.5C10 4.775 9.775 5 9.5 5H2.5C2.22375 5 2 4.775 2 4.5V4C2 2.89531 2.89531 2 4 2C4 0.895313 4.89531 0 6 0ZM6.75 2C6.75 1.58562 6.41406 1.25 6 1.25C5.58437 1.25 5.25 1.58562 5.25 2C5.25 2.41406 5.58594 2.75 6 2.75C6.41406 2.75 6.75 2.41406 6.75 2Z" fill="#7E5DBB"/>
</g>
<defs>
<clipPath id="clip0_201_8930">
<rect width="16" height="16" fill="white"/>
</clipPath>
</defs>
</svg>
