<svg width="16" height="16" viewBox="0 0 16 16" fill="none" xmlns="http://www.w3.org/2000/svg">
<g clip-path="url(#clip0_201_9094)">
<path d="M3 1C3 0.447715 3.44772 0 4 0H7C7.55228 0 8 0.447715 8 1C8 1.55228 7.55228 2 7 2H4C3.44772 2 3 1.55228 3 1Z" fill="#80B7E5"/>
<path d="M0.707107 3.29289C0.894643 3.10536 1.149 3 1.41421 3H4C4.55228 3 5 3.44772 5 4V6.58579C5 6.851 4.89464 7.10536 4.70711 7.29289L4.29289 7.70711C4.10536 7.89464 3.851 8 3.58579 8H1C0.447715 8 0 7.55228 0 7V4.41421C0 4.149 0.105357 3.89464 0.292893 3.70711L0.707107 3.29289Z" fill="#80B7E5"/>
<path d="M6.70711 3.29289C6.89464 3.10536 7.149 3 7.41421 3H10C10.5523 3 11 3.44772 11 4V6.58579C11 6.851 10.8946 7.10536 10.7071 7.29289L10.2929 7.70711C10.1054 7.89464 9.851 8 9.58579 8H7C6.44772 8 6 7.55228 6 7V4.41421C6 4.149 6.10536 3.89464 6.29289 3.70711L6.70711 3.29289Z" fill="#80B7E5"/>
<path d="M9 1C9 0.447715 9.44771 0 10 0H13C13.5523 0 14 0.447715 14 1V4C14 4.55228 13.5523 5 13 5C12.4477 5 12 4.55228 12 4V2.5C12 2.22386 11.7761 2 11.5 2H10C9.44771 2 9 1.55228 9 1Z" fill="#80B7E5"/>
<path d="M5.29299 13.2064C4.90234 12.8157 4.90234 12.1843 5.29299 11.7936L7.79317 9.29303C8.18382 8.90232 8.81511 8.90232 9.20577 9.29303C9.59642 9.68375 9.59642 10.3151 9.20577 10.7058L8.41508 11.4998L14.9998 11.4998C15.5522 11.4998 16 11.9476 16 12.5V12.5C16 13.0524 15.5522 13.5002 14.9998 13.5002L8.41508 13.5002L9.20577 14.2941C9.59642 14.6849 9.59642 15.3163 9.20577 15.707C8.81511 16.0977 8.18382 16.0977 7.79317 15.707L5.29299 13.2064Z" fill="#0070CC"/>
</g>
<defs>
<clipPath id="clip0_201_9094">
<rect width="16" height="16" fill="white"/>
</clipPath>
</defs>
</svg>
