<svg width="16" height="16" viewBox="0 0 16 16" fill="none" xmlns="http://www.w3.org/2000/svg">
<g clip-path="url(#clip0_201_9093)">
<path d="M16 11.7071C16 11.3166 15.6834 11 15.2929 11H12.7071C12.3166 11 12 11.3166 12 11.7071C12 11.8946 12.0745 12.0745 12.2071 12.2071L13.2929 13.2929C13.6834 13.6834 14.3166 13.6834 14.7071 13.2929L15.7929 12.2071C15.9255 12.0745 16 11.8946 16 11.7071Z" fill="#D27614"/>
<path d="M10.5 14C9.11929 14 8 12.8807 8 11.5C8 10.1193 9.11929 9 10.5 9C11.8525 9 12.9541 10.074 12.9986 11.4156L13.0345 11.3797L14.7203 13.0654C14.9012 12.5779 15 12.0505 15 11.5C15 9.01472 12.9853 7 10.5 7C8.01472 7 6 9.01472 6 11.5C6 13.9853 8.01472 16 10.5 16C10.9364 16 11.3583 15.9379 11.7574 15.822C12.3735 15.6431 12.4639 14.8781 12.0102 14.4244L11.8767 14.2909C11.5954 14.0097 11.175 13.9405 10.7797 13.9845C10.6878 13.9948 10.5945 14 10.5 14Z" fill="#D27614"/>
<path fill-rule="evenodd" clip-rule="evenodd" d="M1.41421 2.99997C1.149 2.99997 0.894643 3.10533 0.707107 3.29286L0.292893 3.70708C0.105357 3.89461 0 4.14897 0 4.41418V6.99997C0 7.55225 0.447715 7.99997 1 7.99997H3.58579C3.851 7.99997 4.10536 7.89461 4.29289 7.70708L4.70711 7.29286C4.89464 7.10533 5 6.85097 5 6.58576V3.99997C5 3.44768 4.55228 2.99997 4 2.99997H1.41421Z" fill="#EEA14F"/>
<path d="M3 0.999969C3 0.447685 3.44772 -3.05176e-05 4 -3.05176e-05H7C7.55228 -3.05176e-05 8 0.447685 8 0.999969C8 1.55225 7.55228 1.99997 7 1.99997H4C3.44772 1.99997 3 1.55225 3 0.999969Z" fill="#EEA14F"/>
<path d="M10 -3.05176e-05C9.44772 -3.05176e-05 9 0.447685 9 0.999969C9 1.55225 9.44772 1.99997 10 1.99997H11.5C11.7761 1.99997 12 2.22383 12 2.49997V3.99997C12 4.55225 12.4477 4.99997 13 4.99997C13.5523 4.99997 14 4.55225 14 3.99997V0.999969C14 0.447685 13.5523 -3.05176e-05 13 -3.05176e-05H10Z" fill="#EEA14F"/>
<path d="M6.70711 3.29286C6.89464 3.10533 7.149 2.99997 7.41421 2.99997H10C10.5523 2.99997 11 3.44768 11 3.99997V5.52172C11 5.79065 10.7689 5.99997 10.5 5.99997C9.20166 5.99997 8.00839 6.44984 7.06757 7.20222C6.67041 7.51983 6.03037 7.56513 6.00162 7.0574C6.00055 7.03839 6 7.01924 6 6.99997V4.41418C6 4.14897 6.10536 3.89461 6.29289 3.70708L6.70711 3.29286Z" fill="#EEA14F"/>
</g>
<defs>
<clipPath id="clip0_201_9093">
<rect width="16" height="16" fill="white"/>
</clipPath>
</defs>
</svg>
