<svg width="16" height="16" viewBox="0 0 16 16" fill="none" xmlns="http://www.w3.org/2000/svg">
<g clip-path="url(#clip0_201_10630)">
<path d="M2.33493 5.16328C1.42043 5.96426 0.656418 6.95561 0.0966517 8.08212C0.0331076 8.21174 0 8.35496 0 8.5002C0 8.64545 0.0331076 8.78867 0.0966517 8.91829C1.60304 11.9493 4.58527 14.0001 8 14.0001C8.94756 14.0001 9.86188 13.842 10.7206 13.549L9.49739 12.3258C9.02162 12.5237 8.51324 12.6253 8 12.6251C7.20887 12.6251 6.43551 12.3831 5.77771 11.9299C5.11992 11.4766 4.60723 10.8324 4.30447 10.0786C4.00172 9.32489 3.92251 8.49549 4.07685 7.69531C4.11774 7.48332 4.17454 7.27591 4.24634 7.07479L2.33493 5.16328Z" fill="#80B7E5"/>
<path d="M5.362 8.19051C5.31611 8.61607 5.36725 9.04889 5.51385 9.45368C5.70857 9.99134 6.06188 10.4525 6.52406 10.7722C6.98623 11.092 7.534 11.2542 8.09027 11.2361C8.18812 11.2329 8.28536 11.2242 8.38159 11.21L5.362 8.19051Z" fill="#80B7E5"/>
<path d="M10.137 10.1368L7.36991 7.36972C7.47337 7.18964 7.53623 6.98616 7.55177 6.77442C7.57574 6.44755 7.48534 6.12265 7.29694 5.85863C7.5255 5.79001 7.76198 5.75349 8 5.75006C8.55654 5.74871 9.09948 5.92737 9.5524 6.26091C10.0053 6.59444 10.3454 7.06604 10.5248 7.60934C10.7042 8.15264 10.7139 8.74027 10.5525 9.28954C10.4622 9.59655 10.3211 9.88294 10.137 10.1368Z" fill="#80B7E5"/>
<path d="M11.1037 11.1035C11.3478 10.794 11.5475 10.449 11.696 10.0789C11.897 9.57836 12.0003 9.04184 12 8.50006C12 7.68421 11.7654 6.88669 11.3259 6.20833C10.8864 5.52998 10.2616 5.00127 9.53074 4.68906C8.79983 4.37685 7.99556 4.29516 7.21964 4.45432C6.53783 4.59418 5.90481 4.91449 5.38173 5.38154L4.00551 4.00532C5.20939 3.36164 6.56667 3.00006 8 3.00006C11.4147 3.00006 14.397 5.05082 15.9033 8.08183C15.9669 8.21146 16 8.35467 16 8.49992C16 8.64517 15.9669 8.78838 15.9033 8.918C15.1425 10.4491 14.0044 11.7306 12.6239 12.6237L11.1037 11.1035Z" fill="#80B7E5"/>
<path d="M1.70711 2.12138C1.31658 1.73086 1.31658 1.09769 1.70711 0.707169V0.707169C2.09763 0.316645 2.7308 0.316645 3.12132 0.707169L15.2872 12.873C15.6777 13.2635 15.6777 13.8967 15.2872 14.2872V14.2872C14.8966 14.6777 14.2635 14.6777 13.8729 14.2872L1.70711 2.12138Z" fill="#0070CC"/>
</g>
<defs>
<clipPath id="clip0_201_10630">
<rect width="16" height="16" fill="white"/>
</clipPath>
</defs>
</svg>
