<svg width="16" height="16" viewBox="0 0 16 16" fill="none" xmlns="http://www.w3.org/2000/svg">
<path d="M2 2C2 0.895313 2.89531 0 4 0H9V5H14V14C14 15.1031 13.1031 16 12 16H4C2.89531 16 2 15.1031 2 14V2Z" fill="#80B7E5"/>
<path d="M9 5V0L14 5H9Z" fill="#00437A"/>
<path d="M3.42 12.014C3.14 12.014 3 11.937 3 11.783V7.38001C3 7.19334 3.08633 7.10001 3.259 7.10001H4.47C4.98333 7.10001 5.36367 7.22834 5.611 7.48501C5.863 7.74167 5.989 8.12667 5.989 8.64001C5.989 9.14867 5.863 9.53367 5.611 9.79501C5.36367 10.0517 4.98333 10.18 4.47 10.18H4.085V11.783C4.085 11.937 3.945 12.014 3.665 12.014H3.42ZM4.085 9.26301H4.47C4.64733 9.26301 4.76867 9.21401 4.834 9.11601C4.904 9.01801 4.939 8.85934 4.939 8.64001C4.939 8.42067 4.904 8.26201 4.834 8.16401C4.76867 8.06601 4.64733 8.01701 4.47 8.01701H4.085V9.26301Z" fill="#00437A"/>
<path d="M6.83064 12C6.65797 12 6.57164 11.9067 6.57164 11.72V7.38001C6.57164 7.19334 6.65797 7.10001 6.83064 7.10001H8.09064C8.72064 7.10001 9.18264 7.29834 9.47664 7.69501C9.77531 8.09167 9.92464 8.71001 9.92464 9.55001C9.92464 10.39 9.77531 11.0083 9.47664 11.405C9.18264 11.8017 8.72064 12 8.09064 12H6.83064ZM7.65664 11.083H8.09764C8.35897 11.083 8.54331 10.964 8.65064 10.726C8.76264 10.488 8.81864 10.096 8.81864 9.55001C8.81864 9.00401 8.76264 8.61201 8.65064 8.37401C8.54331 8.13601 8.35897 8.01701 8.09764 8.01701H7.65664V11.083Z" fill="#00437A"/>
<path d="M11.0486 12.014C10.7686 12.014 10.6286 11.937 10.6286 11.783V7.38001C10.6286 7.19334 10.715 7.10001 10.8876 7.10001H12.7916C12.927 7.10001 12.9946 7.21667 12.9946 7.45001V7.66701C12.9946 7.90034 12.927 8.01701 12.7916 8.01701H11.7136V9.17201H12.7286C12.864 9.17201 12.9316 9.28867 12.9316 9.52201V9.73901C12.9316 9.97234 12.864 10.089 12.7286 10.089H11.7136V11.783C11.7136 11.937 11.5736 12.014 11.2936 12.014H11.0486Z" fill="#00437A"/>
</svg>
