<svg width="16" height="16" viewBox="0 0 16 16" fill="none" xmlns="http://www.w3.org/2000/svg">
<path d="M1 8C1 7.03438 1.78344 6.25 2.75 6.25C3.71656 6.25 4.5 7.03438 4.5 8C4.5 8.96562 3.71656 9.75 2.75 9.75C1.78344 9.75 1 8.96562 1 8ZM11 8C11 7.03438 11.7844 6.25 12.75 6.25C13.7156 6.25 14.5 7.03438 14.5 8C14.5 8.96562 13.7156 9.75 12.75 9.75C11.7844 9.75 11 8.96562 11 8Z" fill="#D27614"/>
<path d="M9.5 8C9.5 8.96562 8.71562 9.75 7.75 9.75C6.78438 9.75 6 8.96562 6 8C6 7.03438 6.78438 6.25 7.75 6.25C8.71562 6.25 9.5 7.03438 9.5 8Z" fill="#D27614"/>
</svg>
