<svg width="16" height="16" viewBox="0 0 16 16" fill="none" xmlns="http://www.w3.org/2000/svg">
<path d="M11.5 7.00006C9.01562 7.00006 7 9.01569 7 11.5001C7 13.9844 9.01469 16.0001 11.5 16.0001C13.9853 16.0001 16 13.9854 16 11.5001C16 9.01475 13.9844 7.00006 11.5 7.00006ZM13.2656 12.5594C13.4607 12.7545 13.461 13.071 13.2659 13.2663C13.0709 13.4614 12.7544 13.461 12.5591 13.266L11.4994 12.2063L10.4397 13.266C10.2446 13.461 9.92812 13.4614 9.73281 13.2663C9.53749 13.0712 9.53806 12.7547 9.73311 12.5594L10.7928 11.4997L9.73311 10.44C9.53805 10.245 9.53777 9.92848 9.73283 9.73316C9.92789 9.53785 10.2444 9.53841 10.4397 9.7335L11.4994 10.7932L12.5591 9.7335C12.7541 9.53843 13.0706 9.53806 13.2656 9.73314C13.4606 9.92823 13.4604 10.2447 13.2654 10.44L12.2057 11.4997L13.2656 12.5594Z" fill="#D27614"/>
<path d="M10.9125 1.41256L13.5344 4.03444C13.8031 4.30319 14 4.77819 14 5.12194V6.59997C13.2498 6.21641 12.4001 6.00006 11.5 6.00006C10.98 6.00006 10.4769 6.07229 10 6.20725V3.50006C10 3.22506 9.775 3.00006 9.5 3.00006H2.5C2.22375 3.00006 2 3.22506 2 3.50006V6.50006C2 6.77506 2.22375 7.00006 2.5 7.00006H8.33767C7.59461 7.52331 6.98686 8.2259 6.57746 9.0448C5.67594 9.23878 5 10.0406 5 11.0001C5 11.8037 5.4743 12.4969 6.15819 12.8147C6.35811 13.6295 6.73965 14.3731 7.25747 15.0001H2C0.895313 15.0001 0 14.1047 0 13.0001V3.00006C0 1.89537 0.895313 1.00006 2 1.00006H9.87813C10.2219 1.00006 10.6969 1.19756 10.9125 1.41256Z" fill="#F5C591"/>
</svg>
