<svg width="16" height="16" viewBox="0 0 16 16" fill="none" xmlns="http://www.w3.org/2000/svg">
<g clip-path="url(#clip0_201_8922)">
<path d="M2.12132 0.707168C1.7308 0.316643 1.09763 0.316644 0.707107 0.707168V0.707168C0.316582 1.09769 0.316583 1.73086 0.707107 2.12138L13.8749 15.2891C14.2654 15.6797 14.8986 15.6797 15.2891 15.2891V15.2891C15.6796 14.8986 15.6796 14.2654 15.2891 13.8749L2.12132 0.707168Z" fill="#7E5DBB"/>
<path d="M6.35447 3.52601L7.57924 4.75079L9.835 2.49503C10.8477 1.47366 12.4923 1.47366 13.505 2.49503C14.5264 3.50774 14.5264 5.15232 13.505 6.16503L13.0982 6.5805C13.3405 7.25564 13.4531 7.96541 13.4444 8.67517L14.7341 7.38548C16.422 5.69762 16.422 2.95378 14.7341 1.26592C13.0463 -0.421934 10.3024 -0.421934 8.61455 1.26592L6.35447 3.52601Z" fill="#B7A9D1"/>
<path d="M11.7072 8.87873L8.95517 6.12671C8.96475 5.91677 9.05318 5.70959 9.22045 5.55048C9.55802 5.21291 10.112 5.21291 10.4496 5.55048C11.3617 6.46261 11.7809 7.68313 11.7072 8.87873Z" fill="#B7A9D1"/>
<path d="M5.55045 10.4496C4.63829 9.53745 4.21908 8.31687 4.29283 7.12123L7.04484 9.87324C7.03528 10.0832 6.94685 10.2905 6.77955 10.4496C6.44198 10.7871 5.88802 10.7871 5.55045 10.4496Z" fill="#B7A9D1"/>
<path d="M6.165 13.505L8.42083 11.2492L9.64561 12.474L7.38545 14.7341C5.69759 16.422 2.95375 16.422 1.26589 14.7341C-0.421963 13.0463 -0.421963 10.3024 1.26589 8.61458L2.55559 7.32489C2.54693 8.03465 2.65945 8.74442 2.90181 9.42821L2.495 9.83503C1.47363 10.8477 1.47363 12.4923 2.495 13.505C3.50771 14.5264 5.15229 14.5264 6.165 13.505Z" fill="#B7A9D1"/>
</g>
<defs>
<clipPath id="clip0_201_8922">
<rect width="16" height="16" fill="white"/>
</clipPath>
</defs>
</svg>
