<svg width="16" height="16" viewBox="0 0 16 16" fill="none" xmlns="http://www.w3.org/2000/svg">
<path d="M16 11.5001C16 13.9844 13.9844 16.0001 11.5 16.0001C9.01562 16.0001 7 13.9844 7 11.5001C7 9.01569 9.01562 7.00006 11.5 7.00006C13.9844 7.00006 16 9.01569 16 11.5001ZM11 9.47194V10.9719H9.5C9.225 10.9719 9 11.2251 9 11.4719C9 11.7751 9.225 11.9719 9.5 11.9719H11V13.4719C11 13.7751 11.225 13.9719 11.5 13.9719C11.775 13.9719 12 13.7751 12 13.4719V11.9719H13.5C13.775 11.9719 14 11.7751 14 11.4719C14 11.2251 13.775 10.9719 13.5 10.9719H12V9.47194C12 9.22506 11.775 8.97194 11.5 8.97194C11.225 8.97194 11 9.22506 11 9.47194Z" fill="#D27614"/>
<path d="M10.9125 1.41256L13.5344 4.03444C13.8031 4.30319 14 4.77819 14 5.12194V6.59997C13.2498 6.21641 12.4001 6.00006 11.5 6.00006C10.98 6.00006 10.4769 6.07229 10 6.20725V3.50006C10 3.22506 9.775 3.00006 9.5 3.00006H2.5C2.22375 3.00006 2 3.22506 2 3.50006V6.50006C2 6.77506 2.22375 7.00006 2.5 7.00006H8.33767C7.59461 7.52331 6.98686 8.2259 6.57746 9.0448C5.67594 9.23878 5 10.0406 5 11.0001C5 11.8037 5.4743 12.4969 6.15819 12.8147C6.35811 13.6295 6.73965 14.3731 7.25747 15.0001H2C0.895313 15.0001 0 14.1047 0 13.0001V3.00006C0 1.89537 0.895313 1.00006 2 1.00006H9.87813C10.2219 1.00006 10.6969 1.19756 10.9125 1.41256Z" fill="#F5C591"/>
</svg>
