<svg width="16" height="16" viewBox="0 0 16 16" fill="none" xmlns="http://www.w3.org/2000/svg">
<g clip-path="url(#clip0_201_9178)">
<path d="M16 11.5001C16 13.9844 13.9844 16.0001 11.5 16.0001C9.01562 16.0001 7 13.9844 7 11.5001C7 9.01569 9.01562 7.00006 11.5 7.00006C13.9844 7.00006 16 9.01569 16 11.5001ZM12.6469 9.64694L11.5 10.7938L10.3531 9.64694C10.1594 9.45006 9.84063 9.45006 9.64688 9.64694C9.45 9.84069 9.45 10.1594 9.64688 10.3532L10.7937 11.5001L9.64688 12.6469C9.45 12.8407 9.45 13.1594 9.64688 13.3532C9.84063 13.5501 10.1594 13.5501 10.3531 13.3532L11.5 12.2063L12.6469 13.3532C12.8406 13.5501 13.1594 13.5501 13.3531 13.3532C13.55 13.1594 13.55 12.8407 13.3531 12.6469L12.2063 11.5001L13.3531 10.3532C13.55 10.1594 13.55 9.84069 13.3531 9.64694C13.1594 9.45006 12.8406 9.45006 12.6469 9.64694Z" fill="#CC0F1F"/>
<path d="M0 1.00006C0 0.447776 0.447715 6.10352e-05 1 6.10352e-05H5C5.55228 6.10352e-05 6 0.447776 6 1.00006V4.00006C6 4.55235 5.55228 5.00006 5 5.00006H1C0.447715 5.00006 0 4.55235 0 4.00006V1.00006Z" fill="#E8939A"/>
<path d="M0 7.00006C0 6.44778 0.447715 6.00006 1 6.00006H5C5.55228 6.00006 6 6.44778 6 7.00006V13.0001C6 13.5523 5.55228 14.0001 5 14.0001H1C0.447715 14.0001 0 13.5523 0 13.0001V7.00006Z" fill="#E8939A"/>
<path d="M13 6.20709C12.5232 6.07223 12.02 6.00006 11.5 6.00006C9.63984 6.00006 7.99537 6.92351 7 8.33698V1.00006C7 0.447776 7.44772 6.10352e-05 8 6.10352e-05H12C12.5523 6.10352e-05 13 0.447776 13 1.00006V6.20709Z" fill="#E8939A"/>
</g>
<defs>
<clipPath id="clip0_201_9178">
<rect width="16" height="16" fill="white"/>
</clipPath>
</defs>
</svg>
