<svg width="16" height="16" viewBox="0 0 16 16" fill="none" xmlns="http://www.w3.org/2000/svg">
<g clip-path="url(#clip0_201_9091)">
<path d="M7.60577 13.1438C7.52764 13.2225 7.47423 13.3228 7.45208 13.4315L7.00552 15.6634C6.96645 15.86 7.14098 16.0331 7.33645 15.994L9.56927 15.5474C9.67736 15.526 9.77786 15.4726 9.85598 15.3938L13.7716 11.4782L11.5216 9.22816L7.60577 13.1438ZM15.6714 7.99063L15.0123 7.33126C14.5723 6.89188 13.8601 6.89188 13.4211 7.33126L12.2298 8.52344L14.4798 10.7734L15.6711 9.58188C16.1089 9.14063 16.1089 8.42813 15.6714 7.99063Z" fill="#0070CC"/>
<path d="M0 1C0 0.447715 0.447715 0 1 0H5C5.55228 0 6 0.447715 6 1V7C6 7.55228 5.55228 8 5 8H1C0.447715 8 0 7.55228 0 7V1Z" fill="#80B7E5"/>
<path d="M0 10C0 9.44771 0.447715 9 1 9H5C5.55228 9 6 9.44771 6 10V13C6 13.5523 5.55228 14 5 14H1C0.447715 14 0 13.5523 0 13V10Z" fill="#80B7E5"/>
<path d="M7 1C7 0.447715 7.44772 0 8 0H12C12.5523 0 13 0.447715 13 1V4C13 4.55228 12.5523 5 12 5H8C7.44772 5 7 4.55228 7 4V1Z" fill="#80B7E5"/>
<path d="M7 7C7 6.44772 7.44772 6 8 6H12C12.0621 6 12.1228 6.00565 12.1818 6.01648C12.6653 6.10527 12.6011 6.74262 12.2521 7.08895C11.9893 7.34974 11.7364 7.60171 11.7137 7.62443L11.5234 7.8157L11.5216 7.81397L7.85354 11.4818C7.53856 11.7968 7 11.5737 7 11.1283V7Z" fill="#80B7E5"/>
</g>
<defs>
<clipPath id="clip0_201_9091">
<rect width="16" height="16" fill="white"/>
</clipPath>
</defs>
</svg>
