<svg width="16" height="16" viewBox="0 0 16 16" fill="none" xmlns="http://www.w3.org/2000/svg">
<path d="M16 11.5001C16 13.9844 13.9844 16.0001 11.5 16.0001C9.01562 16.0001 7 13.9844 7 11.5001C7 9.01569 9.01562 7.00006 11.5 7.00006C13.9844 7.00006 16 9.01569 16 11.5001ZM11 9.47194V10.9719H9.5C9.225 10.9719 9 11.2251 9 11.4719C9 11.7751 9.225 11.9719 9.5 11.9719H11V13.4719C11 13.7751 11.225 13.9719 11.5 13.9719C11.775 13.9719 12 13.7751 12 13.4719V11.9719H13.5C13.775 11.9719 14 11.7751 14 11.4719C14 11.2251 13.775 10.9719 13.5 10.9719H12V9.47194C12 9.22506 11.775 8.97194 11.5 8.97194C11.225 8.97194 11 9.22506 11 9.47194Z" fill="#0F7B38"/>
<path d="M0 1.00008C0 0.447792 0.447715 7.62939e-05 1 7.62939e-05H5C5.55228 7.62939e-05 6 0.447792 6 1.00008V7.00008C6 7.55236 5.55228 8.00008 5 8.00008H1C0.447715 8.00008 0 7.55236 0 7.00008V1.00008Z" fill="#87BD9B"/>
<path d="M0 10.0001C0 9.44779 0.447715 9.00008 1 9.00008H5C5.55228 9.00008 6 9.44779 6 10.0001V13.0001C6 13.5524 5.55228 14.0001 5 14.0001H1C0.447715 14.0001 0 13.5524 0 13.0001V10.0001Z" fill="#87BD9B"/>
<path d="M8 7.62939e-05C7.44772 7.62939e-05 7 0.447792 7 1.00008V5.00008C7 5.55236 7.44772 6.00008 8 6.00008H12C12.5523 6.00008 13 5.55236 13 5.00008V1.00008C13 0.447792 12.5523 7.62939e-05 12 7.62939e-05H8Z" fill="#87BD9B"/>
</svg>
