<svg width="16" height="16" viewBox="0 0 16 16" fill="none" xmlns="http://www.w3.org/2000/svg">
<path d="M2 2C2 0.895313 2.89531 0 4 0H9V5H14V14C14 15.1031 13.1031 16 12 16H4C2.89531 16 2 15.1031 2 14V2Z" fill="#B7A9D1"/>
<path d="M9 5V0L14 5H9Z" fill="#523681"/>
<path d="M3.42 12.014C3.14 12.014 3 11.937 3 11.783V7.31701C3 7.16301 3.14 7.08601 3.42 7.08601H3.665C3.945 7.08601 4.085 7.16301 4.085 7.31701V11.783C4.085 11.937 3.945 12.014 3.665 12.014H3.42Z" fill="#523681"/>
<path d="M5.37918 12.014C5.09918 12.014 4.95918 11.937 4.95918 11.783V7.31701C4.95918 7.16301 5.09918 7.08601 5.37918 7.08601H5.58918C5.76185 7.08601 5.88085 7.10001 5.94618 7.12801C6.01618 7.15601 6.06751 7.20734 6.10018 7.28201L6.80018 8.86401C6.83751 8.95267 6.86785 9.03667 6.89118 9.11601C6.91451 9.19534 6.93551 9.26767 6.95418 9.33301C6.96818 9.26767 6.98451 9.19534 7.00318 9.11601C7.02651 9.03667 7.05918 8.95267 7.10118 8.86401L7.80818 7.28201C7.84085 7.20734 7.88985 7.15601 7.95518 7.12801C8.02518 7.10001 8.14651 7.08601 8.31918 7.08601H8.52918C8.80918 7.08601 8.94918 7.16301 8.94918 7.31701V11.783C8.94918 11.937 8.80918 12.014 8.52918 12.014H8.36118C8.08118 12.014 7.94118 11.937 7.94118 11.783V9.71801C7.94118 9.65267 7.94351 9.58734 7.94818 9.52201C7.95285 9.45667 7.96218 9.39367 7.97618 9.33301L7.94818 9.32601C7.92951 9.38201 7.90618 9.43801 7.87818 9.49401C7.85485 9.54534 7.83151 9.59901 7.80818 9.65501L7.41618 10.551C7.36485 10.663 7.22951 10.719 7.01018 10.719H6.89118C6.66251 10.719 6.52251 10.663 6.47118 10.551L6.10018 9.65501C6.08151 9.60367 6.06051 9.55001 6.03718 9.49401C6.01385 9.43801 5.99051 9.38201 5.96718 9.32601L5.93918 9.33301C5.94851 9.39367 5.95551 9.45667 5.96018 9.52201C5.96485 9.58734 5.96718 9.65267 5.96718 9.71801V11.783C5.96718 11.937 5.82718 12.014 5.54718 12.014H5.37918Z" fill="#523681"/>
<path d="M11.6226 12.056C10.96 12.056 10.4793 11.853 10.1806 11.447C9.88197 11.0363 9.73263 10.3993 9.73263 9.53601C9.73263 8.70067 9.89597 8.07767 10.2226 7.66701C10.5493 7.25167 11.058 7.04401 11.7486 7.04401C11.898 7.04401 12.038 7.05334 12.1686 7.07201C12.2993 7.08601 12.395 7.10234 12.4556 7.12101C12.5396 7.14434 12.5956 7.17934 12.6236 7.22601C12.6563 7.26801 12.6726 7.32634 12.6726 7.40101C12.6726 7.48967 12.661 7.58534 12.6376 7.68801C12.619 7.78601 12.591 7.87234 12.5536 7.94701C12.5163 8.01701 12.4673 8.05201 12.4066 8.05201C12.36 8.05201 12.283 8.04267 12.1756 8.02401C12.0683 8.00067 11.9423 7.98901 11.7976 7.98901C11.4663 7.98901 11.226 8.11267 11.0766 8.36001C10.9273 8.60267 10.8526 8.99701 10.8526 9.54301C10.8526 9.93967 10.8806 10.2547 10.9366 10.488C10.9926 10.7213 11.086 10.8893 11.2166 10.992C11.3473 11.09 11.5223 11.139 11.7416 11.139C11.7976 11.139 11.8676 11.1343 11.9516 11.125V10.033H11.5806C11.4406 10.033 11.3706 9.91634 11.3706 9.68301V9.48001C11.3706 9.24667 11.4406 9.13001 11.5806 9.13001H12.7286C12.9013 9.13001 12.9876 9.22334 12.9876 9.41001V11.496C12.9876 11.6173 12.9153 11.7153 12.7706 11.79C12.626 11.8647 12.4556 11.9277 12.2596 11.979C12.0636 12.0303 11.8513 12.056 11.6226 12.056Z" fill="#523681"/>
</svg>
