<svg width="16" height="16" viewBox="0 0 16 16" fill="none" xmlns="http://www.w3.org/2000/svg">
<path d="M10 4V0H3.5C2.67156 0 2 0.671562 2 1.5V14.5C2 15.3281 2.67156 16 3.5 16H12.5C13.3284 16 14 15.3284 14 14.5V4H10ZM6.81563 11.0562C7.05975 11.3004 7.05975 11.6969 6.81563 11.9409C6.69375 12.0656 6.53437 12.125 6.375 12.125C6.21563 12.125 6.05531 12.0644 5.93313 11.9424L4.43313 10.4424C4.189 10.1983 4.189 9.80175 4.43313 9.55769L5.93313 8.05769C6.17725 7.81356 6.57281 7.81356 6.81687 8.05769C7.06094 8.30181 7.061 8.69831 6.81687 8.94238L5.75938 10L6.81563 11.0562ZM11.5656 10.4438L10.0656 11.9438C9.94375 12.0656 9.78437 12.125 9.625 12.125C9.46563 12.125 9.30531 12.0644 9.18313 11.9424C8.939 11.6983 8.939 11.3018 9.18313 11.0577L10.2406 10L9.1825 8.9425C8.93837 8.69838 8.93837 8.30188 9.1825 8.05781C9.42662 7.81375 9.82219 7.81369 10.0662 8.05781L11.5662 9.55781C11.7844 9.80313 11.7844 10.1969 11.5656 10.4438Z" fill="#80B7E5"/>
<path d="M10 0V4H14L10 0ZM6.81562 8.05625C6.5715 7.81212 6.17594 7.81212 5.93187 8.05625L4.43187 9.55625C4.18775 9.80037 4.18775 10.1969 4.43187 10.4409L5.93187 11.9409C6.05625 12.0656 6.21562 12.125 6.375 12.125C6.53437 12.125 6.69469 12.0644 6.81687 11.9424C7.061 11.6983 7.061 11.3018 6.81687 11.0577L5.75937 10L6.8175 8.9425C7.03437 8.69688 7.03437 8.30312 6.81562 8.05625ZM10.0656 8.05625C9.8215 7.81212 9.42594 7.81212 9.18187 8.05625C8.93781 8.30037 8.93775 8.69687 9.18187 8.94094L10.2406 10L9.1825 11.0575C8.93837 11.3016 8.93837 11.6981 9.1825 11.9422C9.30625 12.0656 9.46562 12.125 9.625 12.125C9.78437 12.125 9.94469 12.0644 10.0669 11.9424L11.5669 10.4424C11.811 10.1983 11.811 9.80175 11.5669 9.55769L10.0656 8.05625Z" fill="#00437A"/>
</svg>
