<svg width="16" height="16" viewBox="0 0 16 16" fill="none" xmlns="http://www.w3.org/2000/svg">
<g clip-path="url(#clip0_201_9177)">
<path d="M5.12864 9.07156C5.64142 8.86645 6.22339 9.11586 6.42851 9.62865C6.75499 10.4449 7.99572 11.4156 9.63219 11.6338C11.164 11.8381 12.8987 11.3492 14.168 9.44534C14.4743 8.98581 15.0952 8.86163 15.5547 9.16799C16.0143 9.47434 16.1384 10.0952 15.8321 10.5547C15.5691 10.9492 15.2881 11.3013 14.9927 11.6137L15.7449 12.3723C16.1338 12.7644 16.1312 13.3976 15.739 13.7865C15.3469 14.1754 14.7137 14.1727 14.3248 13.7806L13.4116 12.8597C13.1414 13.0122 12.8659 13.1416 12.5872 13.2493L12.92 14.5778C13.0542 15.1135 12.7287 15.6566 12.193 15.7908C11.6572 15.925 11.1141 15.5995 10.9799 15.0638L10.6299 13.6666C10.3623 13.6811 10.0959 13.6793 9.83257 13.6622L9.46963 15.0377C9.32872 15.5717 8.78159 15.8904 8.24758 15.7494C7.71358 15.6085 7.39491 15.0614 7.53582 14.5274L7.87381 13.2465C7.58509 13.1409 7.3048 13.0173 7.03671 12.8776L6.1515 13.7628C5.76098 14.1533 5.12781 14.1533 4.73729 13.7628C4.34677 13.3723 4.34677 12.7391 4.73729 12.3486L5.4166 11.6693C5.04931 11.2764 4.75881 10.8396 4.57155 10.3714C4.36644 9.85864 4.61585 9.27667 5.12864 9.07156Z" fill="#7E5DBB"/>
<path d="M1 7.62939e-05C0.447715 7.62939e-05 0 0.447792 0 1.00008V4.00008C0 4.55236 0.447715 5.00008 1 5.00008H5C5.55228 5.00008 6 4.55236 6 4.00008V1.00008C6 0.447792 5.55228 7.62939e-05 5 7.62939e-05H1Z" fill="#B7A9D1"/>
<path d="M0 7.00008C0 6.44779 0.447715 6.00008 1 6.00008H5.19582C5.63995 6.00008 6 6.36012 6 6.80426C6 7.2307 5.75906 7.62054 5.37764 7.81125L5.11945 7.94035C4.41474 8.29271 3.91705 8.95629 3.77611 9.73147L3.13175 13.2755C3.05546 13.6951 2.68999 14.0001 2.2635 14.0001H1C0.447715 14.0001 0 13.5524 0 13.0001V7.00008Z" fill="#B7A9D1"/>
<path d="M7 8.27922C7 8.54857 7.10556 8.81035 7.3128 8.98238C8.0889 9.6266 9.01091 9.99995 10 9.99995C10.9891 9.99995 11.9111 9.6266 12.6872 8.98238C12.8944 8.81035 13 8.54857 13 8.27922V1.33341C13 0.59703 12.5523 7.62939e-05 12 7.62939e-05H8C7.44772 7.62939e-05 7 0.59703 7 1.33341V8.27922Z" fill="#B7A9D1"/>
</g>
<defs>
<clipPath id="clip0_201_9177">
<rect width="16" height="16" fill="white"/>
</clipPath>
</defs>
</svg>
