<svg width="16" height="16" viewBox="0 0 16 16" fill="none" xmlns="http://www.w3.org/2000/svg">
<g clip-path="url(#clip0_201_8934)">
<path fill-rule="evenodd" clip-rule="evenodd" d="M0 6.5C0 2.91031 2.91001 0 6.47188 0C10.0906 0 12.9719 2.91031 12.9719 6.5C12.9719 7.83363 12.5663 9.0735 11.8739 10.1052L15.6344 13.8656C16.1219 14.3531 16.1219 15.1469 15.6344 15.6334C15.1463 16.1216 14.3547 16.1216 13.8666 15.6334L10.1112 11.8781C9.06953 12.5861 7.81506 13 6.47188 13C2.91001 13 0 10.0897 0 6.5ZM2.47188 6.5C2.47188 8.70563 4.26626 10.5 6.47188 10.5C8.70626 10.5 10.4719 8.70625 10.4719 6.5C10.4719 4.29437 8.67751 2.5 6.47188 2.5C4.26626 2.5 2.47188 4.29437 2.47188 6.5Z" fill="#D27614"/>
</g>
<defs>
<clipPath id="clip0_201_8934">
<rect width="16" height="16" fill="white"/>
</clipPath>
</defs>
</svg>
