<svg width="16" height="16" viewBox="0 0 16 16" fill="none" xmlns="http://www.w3.org/2000/svg">
<path d="M2 2C2 0.895313 2.89531 0 4 0H9V5H14V14C14 15.1031 13.1031 16 12 16H4C2.89531 16 2 15.1031 2 14V2Z" fill="#80B7E5"/>
<path d="M8.99998 5V0L14 5H8.99998Z" fill="#00437A"/>
<path d="M6.26025 13.018C6.14025 13.018 6.03225 12.997 5.93625 12.955C5.84025 12.907 5.77725 12.814 5.74725 12.676L4.73925 7.132C4.73325 7.102 4.72725 7.063 4.72125 7.015C4.70925 6.961 4.70325 6.922 4.70325 6.898C4.70325 6.832 4.73325 6.781 4.79325 6.745C4.85325 6.703 4.95225 6.682 5.09025 6.682H5.56725C5.69325 6.682 5.80125 6.697 5.89125 6.727C5.98725 6.757 6.04125 6.82 6.05325 6.916L6.63825 11.632H6.67425L7.40325 6.961C7.42125 6.841 7.46625 6.766 7.53825 6.736C7.61625 6.7 7.73325 6.682 7.88925 6.682H8.15925C8.31525 6.682 8.42925 6.7 8.50125 6.736C8.57925 6.766 8.62725 6.841 8.64525 6.961L9.35625 11.659H9.39225L9.95025 6.916C9.96225 6.82 10.0132 6.757 10.1032 6.727C10.1992 6.697 10.3072 6.682 10.4272 6.682H10.9132C11.0512 6.682 11.1502 6.703 11.2102 6.745C11.2702 6.781 11.3002 6.832 11.3002 6.898C11.3002 6.916 11.2882 6.994 11.2642 7.132L10.2202 12.676C10.1962 12.814 10.1332 12.907 10.0312 12.955C9.93525 12.997 9.83025 13.018 9.71625 13.018H9.04125C8.92125 13.018 8.81025 12.997 8.70825 12.955C8.61225 12.907 8.55225 12.814 8.52825 12.676L8.01525 9.328H7.97925L7.43925 12.676C7.41525 12.814 7.35225 12.907 7.25025 12.955C7.15425 12.997 7.04925 13.018 6.93525 13.018H6.26025Z" fill="#00437A"/>
</svg>
