<svg width="16" height="16" viewBox="0 0 16 16" fill="none" xmlns="http://www.w3.org/2000/svg">
<path d="M2 2C2 0.895313 2.89531 0 4 0H9V5H14V14C14 15.1031 13.1031 16 12 16H4C2.89531 16 2 15.1031 2 14V2Z" fill="#B7A9D1"/>
<path d="M9.00001 5V0L14 5H9.00001Z" fill="#523681"/>
<path d="M3.7903 12.014C3.5103 12.014 3.3703 11.937 3.3703 11.783V7.38C3.3703 7.19333 3.46363 7.1 3.6503 7.1H4.8403C5.35363 7.1 5.73397 7.226 5.9813 7.478C6.2333 7.72533 6.3593 8.11267 6.3593 8.64C6.3593 8.864 6.31963 9.05767 6.2403 9.221C6.16563 9.37967 6.06997 9.50567 5.9533 9.599C5.83663 9.68767 5.71297 9.73667 5.5823 9.746V9.774C5.67563 9.80667 5.76197 9.86967 5.8413 9.963C5.9253 10.0517 5.98363 10.1543 6.0163 10.271L6.4433 11.671C6.46197 11.727 6.4713 11.7807 6.4713 11.832C6.4713 11.9067 6.44097 11.9557 6.3803 11.979C6.3243 12.0023 6.21463 12.014 6.0513 12.014H5.8063C5.6943 12.014 5.60097 12 5.5263 11.972C5.45163 11.944 5.40497 11.8927 5.3863 11.818L5.0643 10.523C5.03163 10.3877 4.98263 10.2967 4.9173 10.25C4.85663 10.2033 4.75863 10.18 4.6233 10.18H4.4553V11.783C4.4553 11.937 4.3153 12.014 4.0353 12.014H3.7903ZM4.4553 9.263H4.8403C5.01763 9.263 5.13897 9.214 5.2043 9.116C5.2743 9.018 5.3093 8.85933 5.3093 8.64C5.3093 8.42067 5.2743 8.262 5.2043 8.164C5.13897 8.066 5.01763 8.017 4.8403 8.017H4.4553V9.263Z" fill="#523681"/>
<path d="M8.2143 12.014C7.9343 12.014 7.7943 11.937 7.7943 11.783V8.017H7.0103C6.8703 8.017 6.8003 7.90033 6.8003 7.667V7.45C6.8003 7.21667 6.8703 7.1 7.0103 7.1H9.6633C9.8033 7.1 9.8733 7.21667 9.8733 7.45V7.667C9.8733 7.90033 9.8033 8.017 9.6633 8.017H8.8793V11.783C8.8793 11.937 8.7393 12.014 8.4593 12.014H8.2143Z" fill="#523681"/>
<path d="M10.9265 12.014C10.6465 12.014 10.5065 11.937 10.5065 11.783V7.38C10.5065 7.19333 10.5928 7.1 10.7655 7.1H12.6695C12.8048 7.1 12.8725 7.21667 12.8725 7.45V7.667C12.8725 7.90033 12.8048 8.017 12.6695 8.017H11.5915V9.172H12.6065C12.7418 9.172 12.8095 9.28867 12.8095 9.522V9.739C12.8095 9.97233 12.7418 10.089 12.6065 10.089H11.5915V11.783C11.5915 11.937 11.4515 12.014 11.1715 12.014H10.9265Z" fill="#523681"/>
</svg>
