<svg width="16" height="16" viewBox="0 0 16 16" fill="none" xmlns="http://www.w3.org/2000/svg">
<g clip-path="url(#clip0_365_17987)">
<path d="M4.08906 11.1219C4.87344 9.55006 6.87656 7.00006 9.91719 7.00006C12.9578 7.00006 14.9609 9.55006 15.7453 11.1219C15.8641 11.3626 15.8641 11.6376 15.7453 11.8782C14.9609 13.4501 12.9578 16.0001 9.91719 16.0001C6.87656 16.0001 4.87344 13.4501 4.08906 11.8782C3.97031 11.6376 3.97031 11.3626 4.08906 11.1219ZM9.91719 13.5001C11.0203 13.5001 11.9172 12.6032 11.9172 11.5001C11.9172 10.3969 11.0203 9.50006 9.91719 9.50006C8.81406 9.50006 7.91719 10.3969 7.91719 11.5001C7.91719 12.6032 8.81406 13.5001 9.91719 13.5001Z" fill="#7E5DBB"/>
<path d="M1 6.10352e-05C0.447715 6.10352e-05 0 0.447776 0 1.00006V4.00006C0 4.55235 0.447715 5.00006 1 5.00006H5C5.55228 5.00006 6 4.55235 6 4.00006V1.00006C6 0.447776 5.55228 6.10352e-05 5 6.10352e-05H1Z" fill="#B7A9D1"/>
<path d="M1 6.00006C0.447715 6.00006 0 6.44778 0 7.00006V13.0001C0 13.5523 0.447715 14.0001 1 14.0001H3.23309C3.65155 14.0001 3.89266 13.5099 3.66764 13.1571C3.48118 12.8648 3.32334 12.5833 3.19428 12.3247L3.19231 12.3207C2.93589 11.8011 2.93589 11.199 3.19232 10.6794L3.19428 10.6754C3.63395 9.79434 4.40769 8.6482 5.50852 7.71034C5.58485 7.64531 5.66296 7.58112 5.74284 7.51797C5.90193 7.39218 6 7.20288 6 7.00006V7.00006C6 6.44778 5.55228 6.00006 5 6.00006H1Z" fill="#B7A9D1"/>
<path d="M13 5.95557C13 6.33451 12.5921 6.57927 12.2394 6.44088C11.541 6.16692 10.7656 6.00006 9.91719 6.00006C9.12975 6.00006 8.40524 6.14379 7.74679 6.38349C7.3962 6.51112 7 6.26654 7 5.89344V1.00006C7 0.447776 7.44772 6.10352e-05 8 6.10352e-05H12C12.5523 6.10352e-05 13 0.447776 13 1.00006V5.95557Z" fill="#B7A9D1"/>
</g>
<defs>
<clipPath id="clip0_365_17987">
<rect width="16" height="16" fill="white"/>
</clipPath>
</defs>
</svg>
