<svg width="16" height="16" viewBox="0 0 16 16" fill="none" xmlns="http://www.w3.org/2000/svg">
<g clip-path="url(#clip0_201_9100)">
<path d="M9 8.5C9 7.67157 9.67157 7 10.5 7H14.5C15.3284 7 16 7.67157 16 8.5V14.5C16 15.3284 15.3284 16 14.5 16H10.5C9.67157 16 9 15.3284 9 14.5V8.5Z" fill="#7E5DBB"/>
<path fill-rule="evenodd" clip-rule="evenodd" d="M1.41421 2.99997C1.149 2.99997 0.894643 3.10533 0.707107 3.29286L0.292893 3.70708C0.105357 3.89461 0 4.14897 0 4.41418V6.99997C0 7.55225 0.447715 7.99997 1 7.99997H3.58579C3.851 7.99997 4.10536 7.89461 4.29289 7.70708L4.70711 7.29286C4.89464 7.10533 5 6.85097 5 6.58576V3.99997C5 3.44768 4.55228 2.99997 4 2.99997H1.41421Z" fill="#B7A9D1"/>
<path d="M3 0.999969C3 0.447685 3.44772 -3.05176e-05 4 -3.05176e-05H7C7.55228 -3.05176e-05 8 0.447685 8 0.999969C8 1.55225 7.55228 1.99997 7 1.99997H4C3.44772 1.99997 3 1.55225 3 0.999969Z" fill="#B7A9D1"/>
<path d="M10 -3.05176e-05C9.44772 -3.05176e-05 9 0.447685 9 0.999969C9 1.55225 9.44772 1.99997 10 1.99997H11.5C11.7761 1.99997 12 2.22383 12 2.49997V3.99997C12 4.55225 12.4477 4.99997 13 4.99997C13.5523 4.99997 14 4.55225 14 3.99997V0.999969C14 0.447685 13.5523 -3.05176e-05 13 -3.05176e-05H10Z" fill="#B7A9D1"/>
<path d="M6.70711 3.29286C6.89464 3.10533 7.149 2.99997 7.41421 2.99997H10C10.5523 2.99997 11 3.44768 11 3.99997V5.49997C11 5.77611 10.7761 5.99997 10.5 5.99997C9.57888 5.99997 8.77411 6.49813 8.34041 7.23973C8.10031 7.65028 7.7082 7.99997 7.2326 7.99997H7C6.44772 7.99997 6 7.55225 6 6.99997V4.41418C6 4.14897 6.10536 3.89461 6.29289 3.70708L6.70711 3.29286Z" fill="#B7A9D1"/>
</g>
<defs>
<clipPath id="clip0_201_9100">
<rect width="16" height="16" fill="white"/>
</clipPath>
</defs>
</svg>
