<svg width="16" height="16" viewBox="0 0 16 16" fill="none" xmlns="http://www.w3.org/2000/svg">
<path fill-rule="evenodd" clip-rule="evenodd" d="M11.9125 1.41256L14.5344 4.03444C14.8031 4.30319 15 4.77819 15 5.12194V13.0001C15 14.1047 14.1047 15.0001 13 15.0001H3C1.89531 15.0001 1 14.1047 1 13.0001V3.00006C1 1.89537 1.89531 1.00006 3 1.00006H10.8781C11.2219 1.00006 11.6969 1.19756 11.9125 1.41256ZM6 11.0001C6 12.1044 6.89563 13.0001 8 13.0001C9.10437 13.0001 10 12.1044 10 11.0001C10 9.89569 9.10437 9.00006 8 9.00006C6.89563 9.00006 6 9.89569 6 11.0001ZM10.5 7.00006C10.775 7.00006 11 6.77506 11 6.50006V3.50006C11 3.22506 10.775 3.00006 10.5 3.00006H3.5C3.22375 3.00006 3 3.22506 3 3.50006V6.50006C3 6.77506 3.22375 7.00006 3.5 7.00006H10.5Z" fill="white"/>
</svg>
