<svg width="16" height="16" viewBox="0 0 16 16" fill="none" xmlns="http://www.w3.org/2000/svg">
<g clip-path="url(#clip0_201_9180)">
<path d="M15.0803 11.9658C15.1623 11.5283 15.1623 11.0751 15.0803 10.6376L15.885 10.1689C15.9787 10.1181 16.0217 10.0087 15.9904 9.90326C15.7795 9.23139 15.4201 8.61795 14.9514 8.11014C14.8811 8.03201 14.7639 8.01248 14.6701 8.06717L13.8654 8.53217C13.5254 8.24311 13.1348 8.01655 12.7129 7.86811V6.93451C12.7129 6.82905 12.6348 6.7353 12.5333 6.71576C11.8379 6.55951 11.127 6.56342 10.4629 6.71576C10.3614 6.7353 10.2872 6.82905 10.2872 6.93451V7.86826C9.86528 8.0167 9.47466 8.24326 9.13466 8.53233L8.32716 8.06576C8.23731 8.01108 8.12013 8.03061 8.04591 8.10873C7.57716 8.61655 7.21778 9.22998 7.01059 9.90186C6.97934 10.0073 7.02232 10.1167 7.11216 10.1675L7.91684 10.6362C7.83872 11.0737 7.83872 11.5269 7.91684 11.9644L7.11216 12.4331C7.01841 12.4839 6.97934 12.5933 7.01059 12.6987C7.21763 13.3706 7.57716 13.98 8.04591 14.4919C8.12013 14.57 8.23341 14.5895 8.32716 14.5348L9.13591 14.0698C9.47591 14.3589 9.86653 14.5855 10.2884 14.7339V15.6676C10.2884 15.7731 10.3626 15.8669 10.4642 15.8864C11.1636 16.0426 11.8704 16.0387 12.5345 15.8864C12.6361 15.8669 12.7142 15.7731 12.7142 15.6676V14.7339C13.1361 14.5855 13.5267 14.3589 13.8667 14.0698L14.6714 14.5348C14.7612 14.5895 14.8823 14.57 14.9526 14.4919C15.4214 13.984 15.7808 13.3706 15.9917 12.6987C16.0229 12.5933 15.98 12.4839 15.8862 12.4331L15.0803 11.9658ZM11.5022 12.8158C10.6662 12.8158 9.98653 12.1361 9.98653 11.3001C9.98653 10.4642 10.6662 9.78451 11.5022 9.78451C12.3381 9.78451 13.0178 10.4642 13.0178 11.3001C13.0178 12.1361 12.3397 12.8158 11.5022 12.8158Z" fill="#D27614"/>
<path d="M0 1.00006C0 0.447776 0.447715 6.10352e-05 1 6.10352e-05H5C5.55228 6.10352e-05 6 0.447776 6 1.00006V7.00006C6 7.55235 5.55228 8.00006 5 8.00006H1C0.447715 8.00006 0 7.55235 0 7.00006V1.00006Z" fill="#EEA14F"/>
<path d="M0 10.0001C0 9.44778 0.447715 9.00006 1 9.00006H5C5.55228 9.00006 6 9.44778 6 10.0001V13.0001C6 13.5523 5.55228 14.0001 5 14.0001H1C0.447715 14.0001 0 13.5523 0 13.0001V10.0001Z" fill="#EEA14F"/>
<path d="M7 1.00006C7 0.447776 7.44772 6.10352e-05 8 6.10352e-05H12C12.5523 6.10352e-05 13 0.447776 13 1.00006V5.00006C13 5.55235 12.5523 6.00006 12 6.00006H8C7.44772 6.00006 7 5.55235 7 5.00006V1.00006Z" fill="#EEA14F"/>
</g>
<defs>
<clipPath id="clip0_201_9180">
<rect width="16" height="16" fill="white"/>
</clipPath>
</defs>
</svg>
