<svg width="16" height="16" viewBox="0 0 16 16" fill="none" xmlns="http://www.w3.org/2000/svg">
<g clip-path="url(#clip0_201_8921)">
<path d="M6 11V4H1.5C0.671562 4 0 4.67156 0 5.5V14.5C0 15.3284 0.671562 16 1.5 16H7.5C8.32844 16 9 15.3284 9 14.5V13H8C6.89688 13 6 12.1031 6 11ZM13 0V3H16L13 0Z" fill="#0070CC"/>
<path d="M16 3V10.5C16 11.3284 15.3284 12 14.5 12H8.5C7.67156 12 7 11.3284 7 10.5V1.5C7 0.671562 7.67156 0 8.5 0H13V3H16Z" fill="#80B7E5"/>
</g>
<defs>
<clipPath id="clip0_201_8921">
<rect width="16" height="16" fill="white"/>
</clipPath>
</defs>
</svg>
