<svg width="16" height="16" viewBox="0 0 16 16" fill="none" xmlns="http://www.w3.org/2000/svg">
<path d="M15.7063 8.70625L11.7063 12.7063C11.3156 13.0969 10.6828 13.0969 10.2922 12.7063C9.90156 12.3156 9.90156 11.6828 10.2922 11.2922L12.5875 9H6C5.44687 9 5 8.55313 5 8C5 7.44687 5.44719 7 6 7H12.5875L10.2944 4.70687C9.90375 4.31625 9.90375 3.68344 10.2944 3.29281C10.6847 2.9025 11.3175 2.90188 11.7084 3.29281L15.7084 7.29281C16.0969 7.68437 16.0969 8.31563 15.7063 8.70625Z" fill="#D27614"/>
<path d="M5 13H3C2.44781 13 2 12.5522 2 12V4C2 3.44781 2.44781 3 3 3H5C5.55219 3 6 2.55219 6 2C6 1.44781 5.55313 1 5 1H3C1.34312 1 0 2.34312 0 4V12C0 13.6569 1.34312 15 3 15H5C5.55219 15 6 14.5522 6 14C6 13.4478 5.55313 13 5 13Z" fill="#D27614"/>
</svg>
