<svg width="16" height="16" viewBox="0 0 16 16" fill="none" xmlns="http://www.w3.org/2000/svg">
<g clip-path="url(#clip0_201_8926)">
<path d="M15.8655 12.9656L15.1402 12.5469C15.1749 12.3688 15.1968 12.1594 15.1968 12C15.1968 11.8406 15.1745 11.6319 15.1418 11.4544L15.8671 11.0356C15.9675 10.9778 16.0174 10.8577 15.9824 10.7471C15.903 10.4906 15.7999 10.2406 15.6624 10C15.5249 9.75938 15.3568 9.54531 15.1762 9.34812C15.0978 9.26256 14.9689 9.24559 14.8685 9.30369L14.1353 9.72681C13.8593 9.49062 13.5437 9.30625 13.1968 9.18437V8.34062C13.1968 8.22466 13.1177 8.12137 13.0045 8.09637C12.7437 8.0375 12.4749 8 12.1968 8C11.9187 8 11.6499 8.0375 11.3905 8.09375C11.2749 8.11875 11.1968 8.22187 11.1968 8.34062V9.185C10.8499 9.30625 10.5343 9.49063 10.2593 9.72813L9.52803 9.30312C9.42491 9.24687 9.29678 9.2625 9.21866 9.34688C9.03741 9.54375 8.87178 9.75938 8.73116 10C8.59366 10.2406 8.49053 10.4906 8.41241 10.7469C8.37491 10.8562 8.42491 10.9781 8.52803 11.0344L9.25335 11.4531C9.21866 11.6312 9.19678 11.8125 9.19678 12C9.19678 12.1875 9.21906 12.3681 9.25178 12.5456L8.52803 12.9656C8.42757 13.0235 8.37775 13.1436 8.41269 13.2542C8.49053 13.5094 8.59366 13.7594 8.73116 14C8.87044 14.2412 9.03688 14.4547 9.21741 14.6519C9.29578 14.7374 9.42469 14.7544 9.52516 14.6963L10.258 14.2732C10.5343 14.5094 10.8499 14.6938 11.1968 14.8156V15.66C11.1968 15.776 11.2759 15.8793 11.3892 15.9041C11.6499 15.9625 11.9187 16 12.1968 16C12.4753 16 12.7433 15.9627 13.0046 15.9048C13.1187 15.8813 13.1968 15.7781 13.1968 15.6594V14.815C13.5443 14.6913 13.859 14.5067 14.134 14.2719L14.8671 14.695C14.9675 14.7531 15.0965 14.7361 15.1748 14.6506C15.3562 14.4562 15.5218 14.2406 15.6624 14C15.803 13.7594 15.9034 13.5078 15.984 13.2528C16.0187 13.1437 15.9687 13.0219 15.8655 12.9656ZM12.1968 13.25C11.5065 13.25 10.9468 12.6903 10.9468 12C10.9468 11.3097 11.5062 10.75 12.1968 10.75C12.8874 10.75 13.4468 11.3094 13.4468 12C13.4468 12.6906 12.8874 13.25 12.1968 13.25Z" fill="#D27614"/>
<path d="M2 2H12V7C12.7111 7 13.3875 7.14845 14 7.41604V2C14 0.895431 13.1046 0 12 0H2C0.895431 0 0 0.89543 0 2V12C0 13.1046 0.89543 14 2 14H7.41604C7.14845 13.3875 7 12.7111 7 12H2L2 2Z" fill="#EEA14F"/>
<path d="M4 2H6V12H4V2Z" fill="#EEA14F"/>
<path d="M8 2H10V7.41604C9.20375 7.76394 8.51562 8.31322 8 8.99951V2Z" fill="#EEA14F"/>
</g>
<defs>
<clipPath id="clip0_201_8926">
<rect width="16" height="16" fill="white"/>
</clipPath>
</defs>
</svg>
