<svg width="16" height="16" viewBox="0 0 16 16" fill="none" xmlns="http://www.w3.org/2000/svg">
<g clip-path="url(#clip0_201_9090)">
<path d="M4.08906 11.1219C4.87344 9.55 6.87656 7 9.91719 7C12.9578 7 14.9609 9.55 15.7453 11.1219C15.8641 11.3625 15.8641 11.6375 15.7453 11.8781C14.9609 13.45 12.9578 16 9.91719 16C6.87656 16 4.87344 13.45 4.08906 11.8781C3.97031 11.6375 3.97031 11.3625 4.08906 11.1219ZM9.91719 13.5C11.0203 13.5 11.9172 12.6031 11.9172 11.5C11.9172 10.3969 11.0203 9.5 9.91719 9.5C8.81406 9.5 7.91719 10.3969 7.91719 11.5C7.91719 12.6031 8.81406 13.5 9.91719 13.5Z" fill="#7E5DBB"/>
<path d="M1 0C0.447715 0 0 0.447715 0 1V4C0 4.55228 0.447715 5 1 5H5C5.55228 5 6 4.55228 6 4V1C6 0.447715 5.55228 0 5 0H1Z" fill="#B7A9D1"/>
<path d="M1 6C0.447715 6 0 6.44772 0 7V13C0 13.5523 0.447715 14 1 14H3.23309C3.65155 14 3.89266 13.5099 3.66764 13.1571C3.48118 12.8647 3.32334 12.5833 3.19428 12.3246L3.19231 12.3207C2.93589 11.8011 2.93589 11.1989 3.19232 10.6793L3.19428 10.6754C3.63395 9.79428 4.40769 8.64814 5.50852 7.71028C5.58485 7.64525 5.66296 7.58106 5.74284 7.51791C5.90193 7.39212 6 7.20282 6 7V7C6 6.44772 5.55228 6 5 6H1Z" fill="#B7A9D1"/>
<path d="M13 5.95551C13 6.33445 12.5921 6.5792 12.2394 6.44082C11.541 6.16686 10.7656 6 9.91719 6C9.12975 6 8.40524 6.14373 7.74679 6.38343C7.3962 6.51106 7 6.26648 7 5.89338V1C7 0.447715 7.44772 0 8 0H12C12.5523 0 13 0.447715 13 1V5.95551Z" fill="#B7A9D1"/>
</g>
<defs>
<clipPath id="clip0_201_9090">
<rect width="16" height="16" fill="white"/>
</clipPath>
</defs>
</svg>
