<svg width="16" height="16" viewBox="0 0 16 16" fill="none" xmlns="http://www.w3.org/2000/svg">
<path d="M12.5 2H10C11.1047 2 12 2.89531 12 4V4.5C12 4.775 11.775 5 11.5 5H4.5C4.22375 5 4 4.775 4 4.5V4C4 2.89531 4.89531 2 6 2H3.5C2.67156 2 2 2.67156 2 3.5V14.5C2 15.3281 2.67156 16 3.5 16H12.5C13.3284 16 14 15.3284 14 14.5V3.5C14 2.67156 13.3281 2 12.5 2Z" fill="#B7A9D1"/>
<path fill-rule="evenodd" clip-rule="evenodd" d="M10.75 9.5C10.75 10.125 10.5656 10.7031 10.2594 11.2L11.7803 12.7197C12.0733 13.0128 12.0733 13.4873 11.7803 13.7803C11.6337 13.9268 11.4438 14 11.25 14C11.0562 14 10.8656 13.9281 10.7197 13.78L9.19875 12.2591C8.70312 12.5649 8.09688 12.75 7.5 12.75C5.705 12.75 4.25 11.2937 4.25 9.5C4.25 7.70625 5.705 6.25 7.5 6.25C9.295 6.25 10.75 7.705 10.75 9.5ZM5.75 9.5C5.75 10.465 6.535 11.25 7.5 11.25C8.46562 11.25 9.25 10.4656 9.25 9.5C9.25 8.535 8.465 7.75 7.5 7.75C6.535 7.75 5.75 8.535 5.75 9.5Z" fill="#523681"/>
<path fill-rule="evenodd" clip-rule="evenodd" d="M8 0C9.10469 0 10 0.895313 10 2C11.1031 2 12 2.89531 12 4V4.5C12 4.775 11.775 5 11.5 5H4.5C4.22375 5 4 4.775 4 4.5V4C4 2.89531 4.89531 2 6 2C6 0.895313 6.89531 0 8 0ZM7.25 2C7.25 2.41406 7.58437 2.75 8 2.75C8.41562 2.75 8.75 2.41406 8.75 2C8.75 1.58562 8.41406 1.25 8 1.25C7.58594 1.25 7.25 1.58562 7.25 2Z" fill="#7E5DBB"/>
</svg>
