<svg width="16" height="16" viewBox="0 0 16 16" fill="none" xmlns="http://www.w3.org/2000/svg">
<g clip-path="url(#clip0_201_9092)">
<path fill-rule="evenodd" clip-rule="evenodd" d="M7 8C7 7.44772 7.44772 7 8 7H13.5858C13.851 7 14.1054 7.10536 14.2929 7.29289L15.7071 8.70711C15.8946 8.89464 16 9.149 16 9.41421V15C16 15.5523 15.5523 16 15 16H8C7.44772 16 7 15.5523 7 15V8ZM13.5 13C13.5 14.1046 12.6046 15 11.5 15C10.3954 15 9.5 14.1046 9.5 13C9.5 11.8954 10.3954 11 11.5 11C12.6046 11 13.5 11.8954 13.5 13ZM13 8H8V10H13V8Z" fill="#0F7B38"/>
<path fill-rule="evenodd" clip-rule="evenodd" d="M1.41421 2.99997C1.149 2.99997 0.894643 3.10533 0.707107 3.29286L0.292893 3.70708C0.105357 3.89461 0 4.14897 0 4.41418V6.99997C0 7.55225 0.447715 7.99997 1 7.99997H3.58579C3.851 7.99997 4.10536 7.89461 4.29289 7.70708L4.70711 7.29286C4.89464 7.10533 5 6.85097 5 6.58576V3.99997C5 3.44768 4.55228 2.99997 4 2.99997H1.41421Z" fill="#87BD9B"/>
<path d="M3 0.999969C3 0.447685 3.44772 -3.05176e-05 4 -3.05176e-05H7C7.55228 -3.05176e-05 8 0.447685 8 0.999969C8 1.55225 7.55228 1.99997 7 1.99997H4C3.44772 1.99997 3 1.55225 3 0.999969Z" fill="#87BD9B"/>
<path d="M10 -3.05176e-05C9.44772 -3.05176e-05 9 0.447685 9 0.999969C9 1.55225 9.44772 1.99997 10 1.99997H11.5C11.7761 1.99997 12 2.22383 12 2.49997V3.99997C12 4.55225 12.4477 4.99997 13 4.99997C13.5523 4.99997 14 4.55225 14 3.99997V0.999969C14 0.447685 13.5523 -3.05176e-05 13 -3.05176e-05H10Z" fill="#87BD9B"/>
<path d="M6.70711 3.29286C6.89464 3.10533 7.149 2.99997 7.41421 2.99997H10C10.5523 2.99997 11 3.44768 11 3.99997V4.99997C11 5.55225 10.5523 5.99997 10 5.99997H8C7.25048 5.99997 6.59726 6.41227 6.25477 7.02243C6.18257 7.15105 6 7.14747 6 6.99997V4.41418C6 4.14897 6.10536 3.89461 6.29289 3.70708L6.70711 3.29286Z" fill="#87BD9B"/>
</g>
<defs>
<clipPath id="clip0_201_9092">
<rect width="16" height="16" fill="white"/>
</clipPath>
</defs>
</svg>
