<svg width="16" height="16" viewBox="0 0 16 16" fill="none" xmlns="http://www.w3.org/2000/svg">
<g clip-path="url(#clip0_201_9097)">
<path fill-rule="evenodd" clip-rule="evenodd" d="M0 2C0 0.895431 0.895431 0 2 0H14C15.1046 0 16 0.89543 16 2V4C16 5.10457 15.1046 6 14 6H12.0019C11.3519 6 10.7322 5.76151 10.1452 5.48229C9.49516 5.17306 8.76779 5 8 5C7.23221 5 6.50484 5.17306 5.85477 5.48229C5.26782 5.76151 4.64808 6 3.99811 6H2C0.895431 6 0 5.10457 0 4V2ZM4 4C4.55228 4 5 3.55228 5 3C5 2.44772 4.55228 2 4 2C3.44772 2 3 2.44772 3 3C3 3.55228 3.44772 4 4 4ZM9 3C9 3.55228 8.55229 4 8 4C7.44772 4 7 3.55228 7 3C7 2.44772 7.44772 2 8 2C8.55229 2 9 2.44772 9 3ZM12 4C12.5523 4 13 3.55228 13 3C13 2.44772 12.5523 2 12 2C11.4477 2 11 2.44772 11 3C11 3.55228 11.4477 4 12 4Z" fill="#80B7E5"/>
<path d="M13 11.7071C13 11.3166 12.6834 11 12.2929 11H9.70711C9.31658 11 9 11.3166 9 11.7071V11.7071C9 11.8946 9.0745 12.0745 9.20711 12.2071L10.2929 13.2929C10.6834 13.6834 11.3166 13.6834 11.7071 13.2929L12.7929 12.2071C12.9255 12.0745 13 11.8946 13 11.7071V11.7071Z" fill="#0070CC"/>
<path d="M7.5 14C6.11929 14 5 12.8807 5 11.5C5 10.1193 6.11929 9 7.5 9C8.85247 9 9.9541 10.074 9.9986 11.4156L10.0345 11.3797L11.7203 13.0654C11.9012 12.5779 12 12.0505 12 11.5C12 9.01472 9.98528 7 7.5 7C5.01472 7 3 9.01472 3 11.5C3 13.9853 5.01472 16 7.5 16C7.93642 16 8.35832 15.9379 8.75736 15.822C9.37347 15.6431 9.46388 14.8781 9.01022 14.4244L8.8767 14.2909C8.59544 14.0097 8.17497 13.9405 7.77965 13.9845C7.68784 13.9948 7.59453 14 7.5 14Z" fill="#0070CC"/>
</g>
<defs>
<clipPath id="clip0_201_9097">
<rect width="16" height="16" fill="white"/>
</clipPath>
</defs>
</svg>
