<svg width="16" height="16" viewBox="0 0 16 16" fill="none" xmlns="http://www.w3.org/2000/svg">
<g clip-path="url(#clip0_201_9024)">
<path d="M2 2C2 0.895313 2.89531 0 4 0H9V5H14V14C14 15.1031 13.1031 16 12 16H4C2.89531 16 2 15.1031 2 14V2Z" fill="#87BD9B"/>
<path d="M9 -1.52588e-05V4.99998H14L9 -1.52588e-05Z" fill="#0A4D21"/>
<path d="M4.89 12.056C4.22733 12.056 3.74667 11.853 3.448 11.447C3.14933 11.0363 3 10.3993 3 9.53599C3 8.70066 3.154 8.07766 3.462 7.66699C3.77467 7.25166 4.26233 7.04399 4.925 7.04399C5.05567 7.04399 5.177 7.05332 5.289 7.07199C5.401 7.08599 5.48733 7.10232 5.548 7.12099C5.632 7.14432 5.688 7.17932 5.716 7.22599C5.74867 7.26799 5.765 7.32632 5.765 7.40099C5.765 7.48966 5.75567 7.58532 5.737 7.68799C5.723 7.78599 5.69733 7.87232 5.66 7.94699C5.62733 8.01699 5.58067 8.05199 5.52 8.05199C5.47333 8.05199 5.401 8.04266 5.303 8.02399C5.205 8.00066 5.09533 7.98899 4.974 7.98899C4.67533 7.98899 4.45833 8.11266 4.323 8.35999C4.18767 8.60266 4.12 8.99699 4.12 9.54299C4.12 10.0937 4.19 10.4927 4.33 10.74C4.47 10.9827 4.69633 11.104 5.009 11.104C5.163 11.104 5.28433 11.0923 5.373 11.069C5.46167 11.041 5.53633 11.027 5.597 11.027C5.653 11.027 5.69733 11.0597 5.73 11.125C5.76733 11.1903 5.79533 11.2697 5.814 11.363C5.83267 11.4563 5.842 11.5497 5.842 11.643C5.842 11.713 5.828 11.7737 5.8 11.825C5.772 11.8763 5.71367 11.9183 5.625 11.951C5.555 11.9743 5.45233 11.9977 5.317 12.021C5.18633 12.0443 5.044 12.056 4.89 12.056Z" fill="#0A4D21"/>
<path d="M7.57937 12.056C7.42537 12.056 7.2667 12.035 7.10337 11.993C6.9447 11.951 6.80237 11.8997 6.67637 11.839C6.57837 11.7923 6.49437 11.741 6.42437 11.685C6.35437 11.6243 6.31937 11.559 6.31937 11.489C6.31937 11.4423 6.3287 11.3723 6.34737 11.279C6.36603 11.181 6.39637 11.09 6.43837 11.006C6.48503 10.922 6.54103 10.88 6.60637 10.88C6.64837 10.88 6.71603 10.9033 6.80937 10.95C6.90737 10.9967 7.01937 11.0433 7.14537 11.09C7.27603 11.1367 7.4137 11.16 7.55837 11.16C7.68437 11.16 7.80103 11.1297 7.90837 11.069C8.02037 11.0037 8.07637 10.8707 8.07637 10.67C8.07637 10.5393 8.0437 10.432 7.97837 10.348C7.9177 10.264 7.8337 10.1893 7.72637 10.124C7.6237 10.0587 7.5117 9.99332 7.39037 9.92799C7.1757 9.80666 6.9937 9.68066 6.84437 9.54999C6.69503 9.41932 6.5807 9.26766 6.50137 9.09499C6.42203 8.91766 6.38237 8.70299 6.38237 8.45099C6.38237 8.15699 6.44537 7.90499 6.57137 7.69499C6.70203 7.48499 6.87703 7.32399 7.09637 7.21199C7.32037 7.09999 7.57237 7.04399 7.85237 7.04399C8.01103 7.04399 8.17437 7.06266 8.34237 7.09999C8.51037 7.13732 8.6527 7.19332 8.76937 7.26799C8.81137 7.29599 8.8557 7.33099 8.90237 7.37299C8.94903 7.41499 8.97237 7.46632 8.97237 7.52699C8.97237 7.59232 8.96303 7.67399 8.94437 7.77199C8.9257 7.86532 8.8977 7.94932 8.86037 8.02399C8.82303 8.09866 8.77637 8.13599 8.72037 8.13599C8.68303 8.13599 8.62237 8.11966 8.53837 8.08699C8.45437 8.05432 8.3587 8.02166 8.25137 7.98899C8.14403 7.95632 8.03903 7.93999 7.93637 7.93999C7.78703 7.93999 7.6727 7.96566 7.59337 8.01699C7.5187 8.06832 7.46737 8.12899 7.43937 8.19899C7.41603 8.26432 7.40437 8.32732 7.40437 8.38799C7.40437 8.52799 7.4417 8.63999 7.51637 8.72399C7.5957 8.80799 7.69603 8.88032 7.81737 8.94099C7.9387 9.00166 8.0647 9.06932 8.19537 9.14399C8.4007 9.26066 8.5687 9.38432 8.69937 9.51499C8.8347 9.64566 8.93503 9.79732 9.00037 9.96999C9.07037 10.138 9.10537 10.3457 9.10537 10.593C9.10537 10.845 9.0517 11.083 8.94437 11.307C8.83703 11.5263 8.67137 11.706 8.44737 11.846C8.22337 11.986 7.93403 12.056 7.57937 12.056Z" fill="#0A4D21"/>
<path d="M10.6798 11.958C10.7545 11.9953 10.8572 12.014 10.9878 12.014H11.5128C11.6342 12.014 11.7322 11.9953 11.8068 11.958C11.8815 11.9207 11.9305 11.8507 11.9538 11.748L12.9618 7.43599C12.9758 7.37532 12.9828 7.33566 12.9828 7.31699C12.9875 7.29366 12.9898 7.27266 12.9898 7.25399C12.9898 7.20266 12.9665 7.16299 12.9198 7.13499C12.8732 7.10232 12.7962 7.08599 12.6888 7.08599H12.3108C12.2175 7.08599 12.1358 7.09766 12.0658 7.12099C11.9958 7.14432 11.9538 7.19332 11.9398 7.26799L11.2748 10.957H11.2468L10.5538 7.26799C10.5398 7.19332 10.4978 7.14432 10.4278 7.12099C10.3578 7.09766 10.2738 7.08599 10.1758 7.08599H9.80482C9.69749 7.08599 9.62049 7.10232 9.57382 7.13499C9.52715 7.16299 9.50382 7.20266 9.50382 7.25399C9.50382 7.27266 9.50615 7.29366 9.51082 7.31699C9.51082 7.33566 9.51782 7.37532 9.53182 7.43599L10.5398 11.748C10.5632 11.8507 10.6098 11.9207 10.6798 11.958Z" fill="#0A4D21"/>
</g>
<defs>
<clipPath id="clip0_201_9024">
<rect width="16" height="16" fill="white"/>
</clipPath>
</defs>
</svg>
