<svg width="16" height="16" viewBox="0 0 16 16" fill="none" xmlns="http://www.w3.org/2000/svg">
<g clip-path="url(#clip0_201_9882)">
<path d="M8 4.00006C8.55313 4.00006 9 4.44694 9 5.00006V8.00006C9 8.55319 8.55313 9.00006 8 9.00006H4C3.44687 9.00006 3 8.55319 3 8.00006V5.00006C3 4.44694 3.44687 4.00006 4 4.00006H8ZM7 11.0001V10.0001H8C9.10312 10.0001 10 9.10319 10 8.00006V7.00006H12C12.5531 7.00006 13 7.44694 13 8.00006V11.0001C13 11.5532 12.5531 12.0001 12 12.0001H8C7.44687 12.0001 7 11.5532 7 11.0001Z" fill="#D27614"/>
<path fill-rule="evenodd" clip-rule="evenodd" d="M16 1.25006C16 1.65902 15.8036 2.0221 15.5 2.25015V13.75C15.8036 13.978 16 14.3411 16 14.7501C16 15.4404 15.4404 16.0001 14.75 16.0001C14.341 16.0001 13.978 15.8037 13.7499 15.5001H2.25009C2.02204 15.8037 1.65895 16.0001 1.25 16.0001C0.559644 16.0001 0 15.4404 0 14.7501C0 14.3411 0.196388 13.978 0.5 13.75V2.25015C0.196388 2.0221 0 1.65902 0 1.25006C0 0.559705 0.559644 6.10352e-05 1.25 6.10352e-05C1.65895 6.10352e-05 2.02204 0.196449 2.25009 0.500061H13.7499C13.978 0.196449 14.341 6.10352e-05 14.75 6.10352e-05C15.4404 6.10352e-05 16 0.559705 16 1.25006ZM2 2.25015V13.75C2.0947 13.8211 2.17896 13.9054 2.25009 14.0001H13.7499C13.821 13.9054 13.9053 13.8211 14 13.75V2.25015C13.9053 2.17902 13.821 2.09476 13.7499 2.00006H2.25009C2.17896 2.09476 2.0947 2.17902 2 2.25015Z" fill="#F5C591"/>
</g>
<defs>
<clipPath id="clip0_201_9882">
<rect width="16" height="16" fill="white"/>
</clipPath>
</defs>
</svg>
