<svg width="16" height="16" viewBox="0 0 16 16" fill="none" xmlns="http://www.w3.org/2000/svg">
<path d="M12.2488 2.61875C11.4863 1.85594 10.2488 1.85594 9.48633 2.61875L3.73633 8.36875C2.42102 9.68437 2.42102 11.8156 3.73633 13.1313C5.05195 14.4469 7.1832 14.4469 8.49883 13.1313L13.2488 8.38125C13.5895 8.04063 14.1457 8.04063 14.4863 8.38125C14.827 8.72188 14.827 9.27812 14.4863 9.61875L9.73633 14.3687C7.73633 16.3687 4.49883 16.3687 2.49883 14.3687C0.500391 12.3687 0.500391 9.13125 2.49883 7.13125L8.24883 1.38125C9.6957 -0.0649999 12.0395 -0.0649999 13.4863 1.38125C14.9332 2.8275 14.9332 5.17188 13.4863 6.61875L7.98633 12.1187C7.09258 13.0125 5.64258 13.0125 4.74883 12.1187C3.85477 11.225 3.85477 9.775 4.74883 8.88125L9.24883 4.38125C9.58945 4.04062 10.1457 4.04062 10.4863 4.38125C10.827 4.72187 10.827 5.27812 10.4863 5.61875L5.98633 10.1187C5.77695 10.3281 5.77695 10.6719 5.98633 10.8813C6.1957 11.0906 6.53945 11.0906 6.74883 10.8813L12.2488 5.38125C13.0113 4.61875 13.0113 3.38125 12.2488 2.61875Z" fill="#0070CC"/>
</svg>
