<svg width="16" height="16" viewBox="0 0 16 16" fill="none" xmlns="http://www.w3.org/2000/svg">
<g clip-path="url(#clip0_201_9197)">
<path d="M8 9.50006L4.99062 9.47193V11.2501C4.99062 11.5484 4.81387 11.8185 4.54031 11.9376C4.26675 12.0566 3.94844 12.0025 3.73031 11.7999L0.23031 8.54987C-0.0753459 8.26568 -0.0753459 7.73456 0.23031 7.45018L3.73031 4.20018C3.94856 3.99756 4.26687 3.94334 4.54031 4.0625C4.8125 4.18131 4.99062 4.45318 4.99062 4.75006V6.47193L8 6.50006V9.50006Z" fill="#0070CC"/>
<path d="M8 6.50006H11.0106V4.75006C11.0106 4.45172 11.1874 4.18162 11.4609 4.06256C11.7345 3.9435 12.0528 3.99762 12.2709 4.20025L15.7709 7.45025C16.0766 7.73444 16.0766 8.26556 15.7709 8.54994L12.2709 11.7999C12.0527 12.0026 11.7344 12.0568 11.4609 11.9376C11.1875 11.8185 11.0094 11.5469 11.0094 11.2501V9.50006H8V6.50006Z" fill="#80B7E5"/>
</g>
<defs>
<clipPath id="clip0_201_9197">
<rect width="16" height="16" fill="white"/>
</clipPath>
</defs>
</svg>
