<svg width="16" height="16" viewBox="0 0 16 16" fill="none" xmlns="http://www.w3.org/2000/svg">
<g clip-path="url(#clip0_320_5561)">
<path d="M8 4.00006C8.41563 4.00006 8.75 4.33444 8.75 4.75006V7.69069L10.7531 9.71881C11.0719 10.0126 11.0719 10.4876 10.7531 10.7532C10.4875 11.0719 10.0125 11.0719 9.71875 10.7532L7.46875 8.50319C7.32812 8.39069 7.25 8.20006 7.25 8.00006V4.75006C7.25 4.33444 7.58437 4.00006 8 4.00006Z" fill="#80B7E5"/>
<path d="M4.71875 4.71881C5.19063 5.19069 4.85625 6.00006 4.19063 6.00006H0.75C0.335938 6.00006 0 5.66569 0 5.25006V1.81069C0 1.14256 0.807813 0.807874 1.28031 1.28037L2.34313 2.34319C3.79063 0.896624 5.79063 6.10352e-05 7.97188 6.10352e-05C12.4188 6.10352e-05 16 3.58131 16 8.00006C16 12.4188 12.4188 16.0001 7.97188 16.0001C6.30313 16.0001 4.725 15.4688 3.42812 14.5657C2.975 14.2219 2.86375 13.6251 3.18125 13.1719C3.49688 12.7188 4.11875 12.6094 4.57188 12.9251C5.54375 13.6032 6.725 14.0001 7.97188 14.0001C11.3125 14.0001 14 11.3126 14 8.00006C14 4.65944 11.3125 2.00006 7.97188 2.00006C6.31563 2.00006 4.84375 2.67069 3.75625 3.75631L4.71875 4.71881Z" fill="#0070CC"/>
</g>
<defs>
<clipPath id="clip0_320_5561">
<rect width="16" height="16" fill="white"/>
</clipPath>
</defs>
</svg>
