<svg width="16" height="16" viewBox="0 0 16 16" fill="none" xmlns="http://www.w3.org/2000/svg">
<g clip-path="url(#clip0_338_5638)">
<path d="M6 2.00006H10V1.00006C10 0.447874 10.4469 6.10352e-05 11 6.10352e-05C11.5531 6.10352e-05 12 0.447874 12 1.00006V2.00006H13.5C14.3281 2.00006 15 2.67162 15 3.50006V6.00006H1V3.50006C1 2.67162 1.67156 2.00006 2.5 2.00006H4V1.00006C4 0.447874 4.44687 6.10352e-05 5 6.10352e-05C5.55313 6.10352e-05 6 0.447874 6 1.00006V2.00006Z" fill="#CC0F1F"/>
<path d="M1 6.00006H15V14.5001C15 15.3282 14.3281 16.0001 13.5 16.0001H2.5C1.67156 16.0001 1 15.3282 1 14.5001V6.00006ZM3 9.50006C3 9.77506 3.22375 10.0001 3.5 10.0001H4.5C4.775 10.0001 5 9.77506 5 9.50006V8.50006C5 8.22506 4.775 8.00006 4.5 8.00006H3.5C3.22375 8.00006 3 8.22506 3 8.50006V9.50006ZM7.5 8.00006C7.225 8.00006 7 8.22506 7 8.50006V9.50006C7 9.77506 7.225 10.0001 7.5 10.0001H8.5C8.775 10.0001 9 9.77506 9 9.50006V8.50006C9 8.22506 8.775 8.00006 8.5 8.00006H7.5ZM11 9.50006C11 9.77506 11.225 10.0001 11.5 10.0001H12.5C12.775 10.0001 13 9.77506 13 9.50006V8.50006C13 8.22506 12.775 8.00006 12.5 8.00006H11.5C11.225 8.00006 11 8.22506 11 8.50006V9.50006ZM3.5 12.0001C3.22375 12.0001 3 12.2251 3 12.5001V13.5001C3 13.7751 3.22375 14.0001 3.5 14.0001H4.5C4.775 14.0001 5 13.7751 5 13.5001V12.5001C5 12.2251 4.775 12.0001 4.5 12.0001H3.5ZM7 13.5001C7 13.7751 7.225 14.0001 7.5 14.0001H8.5C8.775 14.0001 9 13.7751 9 13.5001V12.5001C9 12.2251 8.775 12.0001 8.5 12.0001H7.5C7.225 12.0001 7 12.2251 7 12.5001V13.5001ZM11.5 12.0001C11.225 12.0001 11 12.2251 11 12.5001V13.5001C11 13.7751 11.225 14.0001 11.5 14.0001H12.5C12.775 14.0001 13 13.7751 13 13.5001V12.5001C13 12.2251 12.775 12.0001 12.5 12.0001H11.5Z" fill="#E8939A"/>
</g>
<defs>
<clipPath id="clip0_338_5638">
<rect width="16" height="16" fill="white"/>
</clipPath>
</defs>
</svg>
