<svg width="16" height="16" viewBox="0 0 16 16" fill="none" xmlns="http://www.w3.org/2000/svg">
<g clip-path="url(#clip0_320_5562)">
<path d="M14.6263 7.08585H8.03058V0.489571C8.03058 0.223116 8.21068 6.10352e-05 8.50296 6.10352e-05C12.1551 6.10352e-05 15.1164 2.96133 15.1164 6.61347C15.1164 6.87918 14.892 7.08585 14.6263 7.08585ZM15.5415 8.50301C15.8131 8.50301 16.0316 8.7333 15.9962 9.00492C15.7689 10.6553 14.9717 12.1227 13.8144 13.2062C13.6372 13.3479 13.3597 13.3597 13.1884 13.1885L8.50296 8.50301H15.5415Z" fill="#CC0F1F"/>
<path d="M0 8.03063C0 4.44935 2.66012 1.48631 6.08492 1.01127C6.38312 0.974065 6.6134 1.19166 6.6134 1.46476V8.50301L11.2339 13.1235C11.4317 13.3213 11.417 13.6461 11.1896 13.8085C10.0323 14.6322 8.61514 15.1164 7.08579 15.1164C3.17384 15.1164 0 11.9455 0 8.03063Z" fill="#E8939A"/>
</g>
<defs>
<clipPath id="clip0_320_5562">
<rect width="16" height="16" fill="white"/>
</clipPath>
</defs>
</svg>
