<svg width="16" height="16" viewBox="0 0 16 16" fill="none" xmlns="http://www.w3.org/2000/svg">
<g clip-path="url(#clip0_333_4043)">
<path d="M8.07778 2.3504L10.2556 3.1754L8 4.04206L5.74444 3.1754L7.92222 2.3504C7.97222 2.33095 8.02778 2.33095 8.08056 2.3504H8.07778ZM3.77778 3.56984V6.68651C3.74167 6.69762 3.70556 6.70873 3.66944 6.72262L1.00278 7.73373C0.4 7.96151 0 8.54206 0 9.18651V12.4976C0 13.1143 0.363889 13.6726 0.930556 13.9226L3.59722 15.0948C3.99722 15.2698 4.45 15.2698 4.85 15.0948L8 13.7087L11.1528 15.0948C11.5528 15.2698 12.0056 15.2698 12.4056 15.0948L15.0722 13.9226C15.6361 13.6754 16.0028 13.1143 16.0028 12.4976V9.18651C16.0028 8.53929 15.6028 7.96151 15 7.73095L12.3333 6.71984C12.2972 6.70595 12.2611 6.69484 12.225 6.68373V3.56984C12.225 2.92262 11.825 2.34484 11.2222 2.11428L8.55556 1.10317C8.2 0.96984 7.80833 0.96984 7.45278 1.10317L4.78611 2.11428C4.17778 2.34484 3.77778 2.9254 3.77778 3.56984ZM10.8889 6.8504L8.6 7.71706V5.23929L10.8889 4.36151V6.8504ZM4.3 7.96984L6.47778 8.79484L4.22222 9.65873L1.96667 8.79484L4.14444 7.96984C4.19444 7.9504 4.25 7.9504 4.30278 7.96984H4.3ZM4.82222 13.6476V10.856L7.11111 9.97817V12.6421L4.82222 13.6476ZM11.7 7.96984C11.75 7.9504 11.8056 7.9504 11.8583 7.96984L14.0361 8.79484L11.7778 9.65873L9.52222 8.79484L11.7 7.96984ZM14.5333 12.7004L12.3778 13.6476V10.856L14.6667 9.97817V12.4976C14.6667 12.5865 14.6139 12.6643 14.5333 12.7004Z" fill="#0070CC"/>
</g>
<defs>
<clipPath id="clip0_333_4043">
<rect width="16" height="16" fill="white"/>
</clipPath>
</defs>
</svg>
