<svg width="16" height="16" viewBox="0 0 16 16" fill="none" xmlns="http://www.w3.org/2000/svg">
<g clip-path="url(#clip0_320_5564)">
<path d="M9.05937 2.40091C9.4125 2.96153 10.0375 3.33341 10.75 3.33341H11.8469C11.9563 3.65216 12 3.96153 12 4.33341C12 6.54278 10.2094 8.33341 8 8.33341C5.79063 8.33341 4 6.54278 4 4.33341C4 4.08653 4.01781 3.89903 4.05156 3.68966C4.26563 3.78341 4.50312 3.83341 4.75 3.83341L6 1.8334C7.08125 1.8334 8.50312 3.26028 9.05937 2.40091Z" fill="#B1B4C3"/>
<path d="M4.82948 5.33339L4.9624 3.83339L6.15866 2.83339L11.0133 3.83339L11.1462 5.33339C11.1462 5.33339 11.7738 5.33339 11.9437 4.3085C12.1135 3.2836 11.583 -5.31258e-06 7 -5.31258e-06C6.64094 -0.0108201 6.44042 0.306449 6.30712 0.517363C6.24304 0.618762 6.19449 0.695578 6.15133 0.69954C5.22091 0.784949 3.76585 1.8744 4.03199 4.43661C4.07191 4.82095 4.82948 5.33339 4.82948 5.33339Z" fill="#697586"/>
<path d="M6.5 10.0001L7.53438 11.5924L6.49375 15.1664L5.25938 10.5164C2.84656 10.8626 1 12.7895 1 15.1145C1 15.602 1.42969 16.0001 1.96 16.0001H14.0406C14.5687 16.0001 15 15.602 15 15.1145C15 12.7895 13.1531 10.8626 10.7406 10.5164L9.50625 15.1664L8.46562 11.5924L9.5 10.0001H6.5Z" fill="#697586"/>
</g>
<defs>
<clipPath id="clip0_320_5564">
<rect width="16" height="16" fill="white"/>
</clipPath>
</defs>
</svg>
