<svg width="16" height="16" viewBox="0 0 16 16" fill="none" xmlns="http://www.w3.org/2000/svg">
<path fill-rule="evenodd" clip-rule="evenodd" d="M1.41421 6.50003C1.149 6.50003 0.894643 6.60539 0.707107 6.79292L0.292893 7.20714C0.105357 7.39467 0 7.64903 0 7.91424V11.5C0 12.0523 0.447715 12.5 1 12.5H4.58579C4.851 12.5 5.10536 12.3947 5.29289 12.2071L5.70711 11.7929C5.89464 11.6054 6 11.351 6 11.0858V7.50003C6 6.94775 5.55228 6.50003 5 6.50003H1.41421Z" fill="#CC0F1F"/>
<path fill-rule="evenodd" clip-rule="evenodd" d="M8.41421 6.50003C8.149 6.50003 7.89464 6.60539 7.70711 6.79292L7.29289 7.20714C7.10536 7.39467 7 7.64903 7 7.91424V11.5C7 12.0523 7.44772 12.5 8 12.5H11.5858C11.851 12.5 12.1054 12.3947 12.2929 12.2071L12.7071 11.7929C12.8946 11.6054 13 11.351 13 11.0858V7.50003C13 6.94775 12.5523 6.50003 12 6.50003H8.41421Z" fill="#CC0F1F"/>
<path d="M4 3.50009C3.44772 3.50009 3 3.94781 3 4.50009C3 5.05238 3.44772 5.50009 4 5.50009H8C8.55228 5.50009 9 5.05238 9 4.50009C9 3.94781 8.55228 3.50009 8 3.50009H4Z" fill="#E8939A"/>
<path d="M10 4.50009C10 3.94781 10.4477 3.50009 11 3.50009H15C15.5523 3.50009 16 3.94781 16 4.50009V8.50009C16 9.05238 15.5523 9.50009 15 9.50009C14.4477 9.50009 14 9.05238 14 8.50009V6.00009C14 5.72395 13.7761 5.50009 13.5 5.50009H11C10.4477 5.50009 10 5.05238 10 4.50009Z" fill="#E8939A"/>
</svg>
