<svg width="16" height="16" viewBox="0 0 16 16" fill="none" xmlns="http://www.w3.org/2000/svg">
<path d="M9.25 3.75006C9.25 5.82113 7.57107 7.50006 5.5 7.50006C3.42893 7.50006 1.75 5.82113 1.75 3.75006C1.75 1.67899 3.42893 6.10352e-05 5.5 6.10352e-05C7.57107 6.10352e-05 9.25 1.67899 9.25 3.75006Z" fill="#B1B4C3"/>
<path d="M6.58504 9.02659C6.21071 9.76991 6 10.6101 6 11.5001C6 13.3615 6.9219 15.0052 8.33457 16.0001H2.5C1.11929 16.0001 0 14.8808 0 13.5001C0 10.7386 2.23858 9.00006 5 9.00006H6C6.19791 9.00006 6.39313 9.00899 6.58504 9.02659Z" fill="#B1B4C3"/>
<path d="M16 11.5C16 13.9844 13.9844 16 11.5 16C9.01562 16 7 13.9844 7 11.5C7 9.01562 9.01562 7 11.5 7C13.9844 7 16 9.01562 16 11.5ZM11.5 8.5C11.0844 8.5 10.75 8.83437 10.75 9.25C10.75 9.66563 11.0844 10 11.5 10C11.9156 10 12.25 9.66563 12.25 9.25C12.25 8.83437 11.9156 8.5 11.5 8.5ZM11 11C10.725 11 10.5 11.225 10.5 11.5C10.5 11.775 10.725 12 11 12V13.5C10.725 13.5 10.5 13.725 10.5 14C10.5 14.275 10.725 14.5 11 14.5H12C12.275 14.5 12.5 14.275 12.5 14C12.5 13.725 12.275 13.5 12 13.5V11.5C12 11.225 11.775 11 11.5 11H11Z" fill="#697586"/>
</svg>
