<svg width="16" height="16" viewBox="0 0 16 16" fill="none" xmlns="http://www.w3.org/2000/svg">
<g clip-path="url(#clip0_320_5567)">
<path d="M1 4.00006V14.0001C1 15.1047 1.89531 16.0001 3 16.0001H13C14.1047 16.0001 15 15.1047 15 14.0001V4.00006H1Z" fill="#BFB3D6"/>
<path d="M3 6.10352e-05H13C14.1031 6.10352e-05 15 0.895374 15 2.00006V4.00006H1V2.00006C1 0.895374 1.89531 6.10352e-05 3 6.10352e-05Z" fill="#5F4099"/>
<path d="M4.5 12.5001C4.22388 12.5001 4 12.7239 4 13.0001C4 13.2762 4.22388 13.5001 4.5 13.5001H7.5C7.77612 13.5001 8 13.2762 8 13.0001C8 12.7239 7.77612 12.5001 7.5 12.5001H4.5Z" fill="#5F4099"/>
<path d="M4.5 6.50006H11.5C11.775 6.50006 12 6.72506 12 7.00006C12 7.27506 11.775 7.50006 11.5 7.50006H4.5C4.22388 7.50006 4 7.27619 4 7.00006C4 6.72387 4.22388 6.50006 4.5 6.50006Z" fill="#5F4099"/>
<path d="M4.5 9.50006C4.22388 9.50006 4 9.72387 4 10.0001C4 10.2762 4.22388 10.5001 4.5 10.5001H11.5C11.7761 10.5001 12 10.2762 12 10.0001C12 9.72387 11.7761 9.50006 11.5 9.50006H4.5Z" fill="#5F4099"/>
</g>
<defs>
<clipPath id="clip0_320_5567">
<rect width="16" height="16" fill="white"/>
</clipPath>
</defs>
</svg>
