<svg width="16" height="16" viewBox="0 0 16 16" fill="none" xmlns="http://www.w3.org/2000/svg">
<path d="M8 8C9.10469 8 10 7.10438 10 6C10 4.89562 9.10469 4 8 4C6.89531 4 6 4.89562 6 6C6 7.10438 6.89688 8 8 8ZM9 9H7C5.61937 9 4.5 10.1194 4.5 11.5C4.5 11.7761 4.72387 12 5 12H11C11.2761 12 11.5 11.7761 11.5 11.5C11.5 10.1187 10.3813 9 9 9Z" fill="#0F7B38"/>
<path d="M14.5 1H1.5C0.671562 1 0 1.67156 0 2.5V13.5C0 14.3281 0.671562 15 1.5 15H14.5C15.3284 15 16 14.3284 16 13.5V2.5C16 1.67156 15.3281 1 14.5 1ZM8 4C9.10469 4 10 4.89562 10 6C10 7.10438 9.10469 8 8 8C6.89531 8 6 7.10438 6 6C6 4.89562 6.89688 4 8 4ZM11 12H5C4.72387 12 4.5 11.7761 4.5 11.5C4.5 10.1194 5.61937 9 7 9H9C10.3806 9 11.5 10.1194 11.5 11.5C11.5 11.775 11.275 12 11 12Z" fill="#87BD9B"/>
</svg>
