<svg width="16" height="16" viewBox="0 0 16 16" fill="none" xmlns="http://www.w3.org/2000/svg">
<g clip-path="url(#clip0_320_5583)">
<path d="M15.9746 12.0938L15.5407 13.9719L9.52771 11.4835L10.368 10.4546L10.3484 10.4468L10.8791 9.8024C11.1534 9.4665 11.6194 9.35206 12.0188 9.52193L15.4083 10.9754C15.8431 11.166 16.081 11.6347 15.9746 12.0938Z" fill="#0070CC"/>
<path d="M14.2969 16.0001C6.4125 16.0001 -4.37408e-05 9.58443 4.6067e-09 1.70318C-4.37408e-05 1.24475 0.311469 0.853808 0.756875 0.751621L2.0275 0.458496L4.51562 6.47193C5.57812 8.66256 7.3375 10.4219 9.50119 11.4841L15.5418 13.9726L15.2487 15.2432C15.1472 15.6885 14.7547 16.0001 14.2969 16.0001Z" fill="#0070CC"/>
<path d="M6.4775 3.98287C6.65031 4.38225 6.53375 4.85046 6.19688 5.12193L5.55002 5.65004L4.51562 6.47193L2.0275 0.458496L3.35313 0.152683L3.87812 0.0252081C4.3625 -0.0801919 4.8375 0.156839 5.025 0.591308L6.4775 3.98287Z" fill="#0070CC"/>
</g>
<defs>
<clipPath id="clip0_320_5583">
<rect width="16" height="16" fill="white"/>
</clipPath>
</defs>
</svg>
