<svg width="16" height="16" viewBox="0 0 16 16" fill="none" xmlns="http://www.w3.org/2000/svg">
<g clip-path="url(#clip0_320_5569)">
<path d="M13 6.10352e-05H3C1.89531 6.10352e-05 1 0.895374 1 2.00006V14.0001C1 15.1047 1.89531 16.0001 3 16.0001H13C14.1 16.0001 15 15.1001 15 14.0001V2.00006C15 0.900061 14.1 6.10352e-05 13 6.10352e-05ZM11.5 13.0001H4.5C4.22813 13.0001 4 12.7751 4 12.5001C4 12.2251 4.22813 12.0001 4.5 12.0001H11.5C11.7734 12.0001 12 12.2266 12 12.5001C12 12.7735 11.775 13.0001 11.5 13.0001Z" fill="#BFB3D6"/>
<path d="M7.99139 2.00006V5.75319H11.7445C11.7445 3.67975 10.0658 2.00006 7.99139 2.00006Z" fill="#5F4099"/>
<path d="M4.28825 7.48754C3.34763 5.06879 4.83107 2.77566 6.99138 2.33441V6.75316H11.4101C10.9695 8.91254 8.67575 10.3969 6.257 9.45629C5.35857 9.10879 4.63575 8.38597 4.28825 7.48754Z" fill="#5F4099"/>
</g>
<defs>
<clipPath id="clip0_320_5569">
<rect width="16" height="16" fill="white"/>
</clipPath>
</defs>
</svg>
