<svg width="16" height="16" viewBox="0 0 16 16" fill="none" xmlns="http://www.w3.org/2000/svg">
<g clip-path="url(#clip0_320_5571)">
<path d="M8.00002 8.50006C9.24284 8.50006 10.25 7.49256 10.25 6.25006C10.25 5.00756 9.24377 4.00006 8.00002 4.00006C6.75627 4.00006 5.75002 5.00631 5.75002 6.25006C5.75002 7.49381 6.75627 8.50006 8.00002 8.50006ZM9.00002 10.0001H7.00002C5.5144 10.0001 4.2644 10.9338 3.7594 12.241C4.8469 13.3282 6.3469 14.0001 8.00002 14.0001C9.65315 14.0001 11.1532 13.3272 12.2407 12.241C11.7344 10.9344 10.4844 10.0001 9.00002 10.0001Z" fill="#0070CC"/>
<path d="M8 6.10352e-05C3.58125 6.10352e-05 0 3.58131 0 8.00006C0 12.4188 3.58125 16.0001 8 16.0001C12.4187 16.0001 16 12.4188 16 8.00006C16 3.58131 12.4187 6.10352e-05 8 6.10352e-05ZM8 4.00006C9.24281 4.00006 10.25 5.00756 10.25 6.25006C10.25 7.49256 9.24375 8.50006 8 8.50006C6.7575 8.50006 5.75 7.49256 5.75 6.25006C5.75 5.00756 6.75625 4.00006 8 4.00006ZM8 14.0001C6.34594 14.0001 4.84688 13.3272 3.75938 12.241C4.26563 10.9344 5.51562 10.0001 7 10.0001H9C10.4856 10.0001 11.7356 10.9338 12.2406 12.241C11.1531 13.3282 9.65313 14.0001 8 14.0001Z" fill="#80B7E5"/>
</g>
<defs>
<clipPath id="clip0_320_5571">
<rect width="16" height="16" fill="white"/>
</clipPath>
</defs>
</svg>
