<svg width="16" height="16" viewBox="0 0 16 16" fill="none" xmlns="http://www.w3.org/2000/svg">
<g clip-path="url(#clip0_320_5570)">
<path d="M13 6.10352e-05H3C1.89531 6.10352e-05 1 0.895374 1 2.00006V14.0001C1 15.1047 1.89531 16.0001 3 16.0001H13C14.1 16.0001 15 15.1001 15 14.0001V2.00006C15 0.900061 14.1 6.10352e-05 13 6.10352e-05ZM11.5 13.0001H4.5C4.22813 13.0001 4 12.7751 4 12.5001C4 12.2251 4.22813 12.0001 4.5 12.0001H11.5C11.7734 12.0001 12 12.2266 12 12.5001C12 12.7735 11.775 13.0001 11.5 13.0001Z" fill="#BFB3D6"/>
<path d="M10 7.50006H6C5.17156 7.50006 4.5 8.17194 4.5 9.00006C4.5 9.27506 4.72375 9.50006 5 9.50006H11C11.2761 9.50006 11.5 9.27619 11.5 9.00006C11.5 8.17194 10.8281 7.50006 10 7.50006ZM10 4.50006C10 3.39569 9.10469 2.50006 8 2.50006C6.89531 2.50006 6 3.39569 6 4.50006C6 5.60444 6.89531 6.50006 8 6.50006C9.10469 6.50006 10 5.60319 10 4.50006Z" fill="#5F4099"/>
</g>
<defs>
<clipPath id="clip0_320_5570">
<rect width="16" height="16" fill="white"/>
</clipPath>
</defs>
</svg>
