<svg width="16" height="16" viewBox="0 0 16 16" fill="none" xmlns="http://www.w3.org/2000/svg">
<g clip-path="url(#clip0_320_5572)">
<path d="M8 6.10352e-05C9.15 6.10352e-05 10.15 0.646936 10.6531 1.59694C11.6812 1.25319 12.8156 1.53006 13.6562 2.34319C14.4688 3.15631 14.6906 4.31881 14.4031 5.34694C15.3531 5.85006 16 6.85006 16 8.00006C16 9.15006 15.3531 10.1501 14.4031 10.6532C14.7187 11.6813 14.4688 12.8157 13.6562 13.6563C12.8156 14.4688 11.6812 14.6907 10.6531 14.4032C10.15 15.3532 9.15 16.0001 8 16.0001C6.85 16.0001 5.85 15.3532 5.34688 14.4032C4.31875 14.7188 3.15625 14.4688 2.34313 13.6563C1.53 12.8157 1.28125 11.6813 1.59687 10.6532C0.646875 10.1501 0 9.15006 0 8.00006C0 6.85006 0.646875 5.85006 1.59687 5.34694C1.25312 4.31881 1.53 3.15631 2.34313 2.34319C3.15625 1.53006 4.31875 1.28131 5.34688 1.59694C5.85 0.646936 6.85 6.10352e-05 8 6.10352e-05Z" fill="#87BD9B"/>
<path d="M8.11 12.3101C7.88333 12.3101 7.77 12.2434 7.77 12.1101V11.5801C7.57 11.5667 7.36667 11.5401 7.16 11.5001C6.96 11.4534 6.78 11.3934 6.62 11.3201C6.45333 11.2467 6.31 11.1701 6.19 11.0901C6.07 11.0101 6.01 10.9201 6.01 10.8201C6.01 10.7001 6.02667 10.5534 6.06 10.3801C6.09333 10.2001 6.14333 10.0434 6.21 9.91007C6.27667 9.77007 6.36333 9.70007 6.47 9.70007C6.53 9.70007 6.63 9.7334 6.77 9.80007C6.91667 9.86673 7.08333 9.9334 7.27 10.0001C7.45667 10.0667 7.64667 10.1001 7.84 10.1001C8.28 10.1001 8.5 9.92674 8.5 9.58007C8.5 9.42007 8.44 9.28007 8.32 9.16007C8.2 9.0334 7.97333 8.87673 7.64 8.69007C7.31333 8.5034 7.03667 8.31007 6.81 8.11007C6.58333 7.91007 6.40667 7.67673 6.28 7.41007C6.16 7.1434 6.1 6.81673 6.1 6.43007C6.1 5.89007 6.24667 5.45007 6.54 5.11007C6.83333 4.7634 7.24333 4.54673 7.77 4.46007V4.02007C7.77 3.88673 7.88333 3.82007 8.11 3.82007H8.16C8.38667 3.82007 8.5 3.88673 8.5 4.02007V4.43007C8.69333 4.4434 8.89 4.48007 9.09 4.54007C9.29667 4.5934 9.47 4.65673 9.61 4.73007C9.69 4.77007 9.77333 4.8234 9.86 4.89007C9.95333 4.95007 10 5.0234 10 5.11007C10 5.23007 9.98 5.37673 9.94 5.55007C9.90667 5.71673 9.85667 5.8634 9.79 5.99007C9.72333 6.11674 9.64 6.18007 9.54 6.18007C9.48667 6.18007 9.39667 6.15673 9.27 6.11007C9.15 6.05673 9.01333 6.00673 8.86 5.96007C8.70667 5.90673 8.55667 5.88007 8.41 5.88007C7.97667 5.88007 7.76 6.0234 7.76 6.31007C7.76 6.39673 7.78 6.48007 7.82 6.56007C7.86667 6.6334 7.96333 6.7234 8.11 6.83007C8.25667 6.93673 8.48333 7.0834 8.79 7.27007C9.10333 7.45674 9.36333 7.65007 9.57 7.85007C9.77667 8.0434 9.93 8.27007 10.03 8.53007C10.1367 8.79007 10.19 9.11007 10.19 9.49007C10.19 9.8034 10.13 10.1034 10.01 10.3901C9.89 10.6701 9.70333 10.9134 9.45 11.1201C9.20333 11.3201 8.88667 11.4567 8.5 11.5301V12.1101C8.5 12.2434 8.38667 12.3101 8.16 12.3101H8.11Z" fill="#0A4D21"/>
</g>
<defs>
<clipPath id="clip0_320_5572">
<rect width="16" height="16" fill="white"/>
</clipPath>
</defs>
</svg>
