<svg width="16" height="16" viewBox="0 0 16 16" fill="none" xmlns="http://www.w3.org/2000/svg">
<g clip-path="url(#clip0_320_5573)">
<path d="M7.79375 0.792872C8.18437 0.402559 8.81563 0.402559 9.20625 0.792872C9.59688 1.1835 9.59688 1.81662 9.20625 2.20725L8.41562 2.97193H13C14.6562 2.97193 16 4.31568 16 5.97193V6.97193C16 7.55318 15.5531 7.97193 15 7.97193C14.4469 7.97193 14 7.55318 14 6.97193V5.97193C14 5.44693 13.5531 4.97193 13 4.97193H8.41562L9.20625 5.79381C9.59688 6.18443 9.59688 6.81568 9.20625 7.20631C8.81563 7.59693 8.18437 7.59693 7.79375 7.20631L5.29375 4.70631C4.90312 4.31568 4.90312 3.68443 5.29375 3.29381L7.79375 0.792872ZM4 4.00006C4 5.10318 3.10469 6.00006 2 6.00006C0.895313 6.00006 0 5.10318 0 4.00006C0 2.89537 0.895313 2.00006 2 2.00006C3.10469 2.00006 4 2.89537 4 4.00006Z" fill="#0070CC"/>
<path d="M10.7063 13.2068C11.0969 12.8161 11.0969 12.1848 10.7063 11.7942L8.20625 9.29389C7.81563 8.90323 7.18437 8.90323 6.79375 9.29389C6.40312 9.68456 6.40312 10.3159 6.79375 10.7065L7.58437 11.5004H3C2.44781 11.5004 2 11.0535 2 10.5003V9.50017C2 8.94698 1.55219 8.50006 1 8.50006C0.447812 8.50006 0 8.94698 0 9.50017V10.5003C0 12.1848 1.34312 13.5006 3 13.5006H7.58437L6.79375 14.2944C6.40312 14.6851 6.40312 15.3164 6.79375 15.7071C7.18437 16.0977 7.81563 16.0977 8.20625 15.7071L10.7063 13.2068ZM12 12.5005C12 13.6037 12.8969 14.5288 14 14.5288C15.1031 14.5288 16 13.6037 16 12.5005C16 11.3972 15.1031 10.5003 14 10.5003C12.8969 10.5003 12 11.3972 12 12.5005Z" fill="#80B7E5"/>
</g>
<defs>
<clipPath id="clip0_320_5573">
<rect width="16" height="16" fill="white"/>
</clipPath>
</defs>
</svg>
