<svg width="16" height="16" viewBox="0 0 16 16" fill="none" xmlns="http://www.w3.org/2000/svg">
<path d="M2 2.50006C2 1.67194 2.5599 1.00006 3.25 1.00006H12.75C13.4401 1.00006 14 1.67194 14 2.50006V13.0001H2V2.50006Z" fill="#F5C591"/>
<path d="M10.7219 4.96879C11.0125 4.67504 11.4875 4.67504 11.7813 4.96879V4.97191C12.075 5.26254 12.075 5.73754 11.7813 6.03129L7.78438 10.0282C7.49375 10.3219 7.01875 10.3219 6.725 10.0282L4.725 8.02816C4.43125 7.73754 4.43438 7.26254 4.725 6.96879C5.01563 6.67504 5.49063 6.67504 5.78438 6.96879L7.25313 8.43754L10.7219 4.96879Z" fill="#D27614"/>
<path d="M1.5 9.00006C0.671875 9.00006 0 9.67194 0 10.5001V13.5001C0 14.3282 0.671875 15.0001 1.5 15.0001H14.5C15.3281 15.0001 16 14.3282 16 13.5001V10.5001C16 9.67194 15.3281 9.00006 14.5 9.00006H14V13.0001H2V9.00006H1.5Z" fill="#D27614"/>
</svg>
