<svg width="16" height="16" viewBox="0 0 16 16" fill="none" xmlns="http://www.w3.org/2000/svg">
<path d="M7.99751 9.4584C9.43276 9.4584 10.575 8.27622 10.575 6.81778C10.575 5.35934 9.41151 4.17715 7.99751 4.17715C6.56226 4.17715 5.42001 5.35934 5.42001 6.81778C5.39751 8.2752 6.56251 9.4584 7.99751 9.4584ZM9.24751 10.2709H6.75251C4.79001 10.2709 3.20001 11.7867 3.20001 13.6555C3.20001 14.0313 3.51751 14.3334 3.91001 14.3334H12.09C12.4825 14.3334 12.8 14.0313 12.8 13.6555C12.8 11.7867 11.21 10.2709 9.24751 10.2709Z" fill="#0070CC"/>
<path d="M3.2 5.3959C4.3045 5.3959 5.2 4.48641 5.2 3.36465C5.2 2.2429 4.305 1.3334 3.2 1.3334C2.0955 1.3334 1.2 2.2429 1.2 3.36465C1.2 4.48641 2.0955 5.3959 3.2 5.3959ZM12.8 5.3959C13.9045 5.3959 14.8 4.48641 14.8 3.36465C14.8 2.2429 13.905 1.3334 12.8 1.3334C11.6955 1.3334 10.8 2.2429 10.8 3.36465C10.8 4.48641 11.695 5.3959 12.8 5.3959ZM13.7975 6.2084H12.2515C11.9315 6.2084 11.6295 6.28552 11.355 6.41762C11.37 6.55118 11.395 6.68067 11.395 6.81778C11.395 7.6737 11.0755 8.44811 10.566 9.05215H15.5585C15.8025 9.05215 16 8.83887 16 8.57735C16 7.26973 15.015 6.2084 13.7975 6.2084ZM4.6375 6.41407C4.365 6.26173 4.065 6.2084 3.7475 6.2084H2.202C0.986 6.2084 0 7.26973 0 8.57735C0 8.83887 0.197175 9.05215 0.4405 9.05215H5.428C4.9185 8.44811 4.599 7.6737 4.599 6.81778C4.5975 6.68067 4.6225 6.54864 4.6375 6.41407Z" fill="#80B7E5"/>
</svg>
