<svg width="16" height="16" viewBox="0 0 16 16" fill="none" xmlns="http://www.w3.org/2000/svg">
<path d="M16 14.0001C16 14.5529 15.5528 15.0001 15 15.0001H11C10.6963 15.0001 10.4091 14.8624 10.2188 14.6251L4.51875 6.00006H1C0.447187 6.00006 0 5.55319 0 5.00006C0 4.44694 0.447187 4.00006 1 4.00006H5C5.30372 4.00006 5.59094 4.13775 5.78125 4.37506L11.4812 13.0001H15C15.5531 13.0001 16 13.4469 16 14.0001Z" fill="#87BD9B"/>
<path d="M13.5 5.50006V7.00006C13.5 7.55319 13.0528 8.00006 12.5 8.00006C11.9472 8.00006 11.5 7.55287 11.5 7.00006V5.50006H10C9.44687 5.50006 9 5.05287 9 4.50006C9 3.94725 9.44719 3.50006 10 3.50006H11.5V2.00006C11.5 1.44725 11.9472 1.00006 12.5 1.00006C13.0528 1.00006 13.5 1.44725 13.5 2.00006V3.50006H15C15.5528 3.50006 16 3.94725 16 4.50006C16 5.05287 15.5528 5.50006 15 5.50006H13.5Z" fill="#0F7B38"/>
</svg>
