<svg width="16" height="16" viewBox="0 0 16 16" fill="none" xmlns="http://www.w3.org/2000/svg">
<path d="M15.25 1.00006C15.6656 1.00006 16 1.336 16 1.75006C16 2.16412 15.6656 2.50006 15.25 2.50006H0.75C0.335938 2.50006 0 2.16412 0 1.75006C0 1.336 0.335938 1.00006 0.75 1.00006H15.25ZM15.25 5.00006C15.6656 5.00006 16 5.33444 16 5.75006C16 6.16569 15.6656 6.50006 15.25 6.50006H0.75C0.335938 6.50006 0 6.16569 0 5.75006C0 5.33444 0.335938 5.00006 0.75 5.00006H15.25Z" fill="#0070CC"/>
<path d="M3 10.5001C3 9.67194 3.67188 9.00006 4.5 9.00006H11.5C12.3281 9.00006 13 9.67194 13 10.5001V13.5001C13 14.3282 12.3281 15.0001 11.5 15.0001H4.5C3.67188 15.0001 3 14.3282 3 13.5001V10.5001Z" fill="#80B7E5"/>
</svg>
