<svg width="16" height="16" viewBox="0 0 16 16" fill="none" xmlns="http://www.w3.org/2000/svg">
<path d="M15.25 1.00006C15.6656 1.00006 16 1.336 16 1.75006C16 2.16412 15.6656 2.50006 15.25 2.50006H0.75C0.335938 2.50006 0 2.16412 0 1.75006C0 1.336 0.335938 1.00006 0.75 1.00006H15.25ZM15.25 13.5001C15.6656 13.5001 16 13.8344 16 14.2501C16 14.6657 15.6656 15.0001 15.25 15.0001H0.75C0.335938 15.0001 0 14.6657 0 14.2501C0 13.8344 0.335938 13.5001 0.75 13.5001H15.25Z" fill="#0070CC"/>
<path d="M3 6.50006C3 5.67194 3.67188 5.00006 4.5 5.00006H11.5C12.3281 5.00006 13 5.67194 13 6.50006V9.50006C13 10.3282 12.3281 11.0001 11.5 11.0001H4.5C3.67188 11.0001 3 10.3282 3 9.50006V6.50006Z" fill="#80B7E5"/>
</svg>
