<svg width="16" height="16" viewBox="0 0 16 16" fill="none" xmlns="http://www.w3.org/2000/svg">
<path d="M3.5 8.00006L0.359696 4.41114C0.127813 4.14613 0 3.80596 0 3.45383C0 2.65093 0.650874 2.00006 1.45377 2.00006H9.54623C10.3491 2.00006 11 2.65093 11 3.45383C11 3.80596 10.8722 4.14613 10.6403 4.41114L7.5 8.00006V13.0001C7.5 13.8241 6.55924 14.2945 5.9 13.8001L3.9 12.3001C3.64819 12.1112 3.5 11.8149 3.5 11.5001V8.00006Z" fill="#EEA14F"/>
<path d="M12 3.00006C12 2.44778 12.4477 2.00006 13 2.00006H15C15.5523 2.00006 16 2.44778 16 3.00006C16 3.55234 15.5523 4.00006 15 4.00006H13C12.4477 4.00006 12 3.55234 12 3.00006Z" fill="#D27614"/>
<path d="M10 8.00006C10 7.44778 10.4477 7.00006 11 7.00006H15C15.5523 7.00006 16 7.44778 16 8.00006C16 8.55234 15.5523 9.00006 15 9.00006H11C10.4477 9.00006 10 8.55234 10 8.00006Z" fill="#D27614"/>
<path d="M11 12.0001C10.4477 12.0001 10 12.4478 10 13.0001C10 13.5524 10.4477 14.0001 11 14.0001H15C15.5523 14.0001 16 13.5524 16 13.0001C16 12.4478 15.5523 12.0001 15 12.0001H11Z" fill="#D27614"/>
</svg>
