<svg width="16" height="16" viewBox="0 0 16 16" fill="none" xmlns="http://www.w3.org/2000/svg">
<path d="M5 7.50006H3C2.72375 7.50006 2.5 7.72506 2.5 8.00006V10.0001C2.5 10.2762 2.72387 10.5001 3 10.5001H5C5.27619 10.5001 5.5 10.2762 5.5 10.0001V8.00006C5.5 7.72506 5.275 7.50006 5 7.50006ZM9 7.50006H7C6.725 7.50006 6.5 7.72506 6.5 8.00006V10.0001C6.5 10.2762 6.72387 10.5001 7 10.5001H9C9.27619 10.5001 9.5 10.2762 9.5 10.0001V8.00006C9.5 7.72506 9.275 7.50006 9 7.50006ZM13 7.50006H11C10.7239 7.50006 10.5 7.72394 10.5 8.00006V10.0001C10.5 10.2762 10.7239 10.5001 11 10.5001H13C13.2762 10.5001 13.5 10.2762 13.5 10.0001V8.00006C13.5 7.72506 13.275 7.50006 13 7.50006Z" fill="#D27614"/>
<path d="M14.5 3.00006H8.5L6.5 1.00006H1.5C0.671875 1.00006 0 1.67194 0 2.50006V13.5001C0 14.3282 0.671875 15.0001 1.5 15.0001H14.5C15.3281 15.0001 16 14.3282 16 13.5001V4.50006C16 3.67194 15.3281 3.00006 14.5 3.00006ZM5.5 10.0001C5.5 10.2762 5.27619 10.5001 5 10.5001H3C2.72387 10.5001 2.5 10.2762 2.5 10.0001V8.00006C2.5 7.72394 2.72387 7.50006 3 7.50006H5C5.27619 7.50006 5.5 7.72394 5.5 8.00006V10.0001ZM9.5 10.0001C9.5 10.2762 9.27619 10.5001 9 10.5001H7C6.72387 10.5001 6.5 10.2762 6.5 10.0001V8.00006C6.5 7.72394 6.72387 7.50006 7 7.50006H9C9.27619 7.50006 9.5 7.72394 9.5 8.00006V10.0001ZM13.5 10.0001C13.5 10.2762 13.2762 10.5001 13 10.5001H11C10.7239 10.5001 10.5 10.2762 10.5 10.0001V8.00006C10.5 7.72394 10.7239 7.50006 11 7.50006H13C13.2762 7.50006 13.5 7.72394 13.5 8.00006V10.0001Z" fill="#F5C591"/>
</svg>
