<svg width="16" height="16" viewBox="0 0 16 16" fill="none" xmlns="http://www.w3.org/2000/svg">
<g clip-path="url(#clip0_331_4114)">
<path d="M7.32812 0.178192C7.7625 0.0219421 8.2375 0.0219421 8.675 0.178192L14.675 2.32194C15.4688 2.60632 16 3.35944 16 4.20632V11.7938C16 12.6376 15.4688 13.3938 14.6719 13.6782L8.67188 15.8219C8.2375 15.9782 7.7625 15.9782 7.325 15.8219L1.325 13.6782C0.53125 13.3938 0 12.6407 0 11.7938V4.20632C0 3.36257 0.53125 2.60632 1.32812 2.32194L7.32812 0.178192ZM8 2.06257L2.57188 4.00007L8 5.93757L13.4281 4.00007L8 2.06257ZM9 13.5813L14 11.7969V5.92194L9 7.70632V13.5813Z" fill="#D27614"/>
</g>
<defs>
<clipPath id="clip0_331_4114">
<rect width="16" height="16" fill="white"/>
</clipPath>
</defs>
</svg>
