<svg width="16" height="16" viewBox="0 0 16 16" fill="none" xmlns="http://www.w3.org/2000/svg">
<path d="M15 2.00037V4.00037C15 4.55318 14.5528 5.00037 14 5.00037C13.4472 5.00037 13 4.55318 13 4.00037V3.00037H9V13.0004H10.5C11.0528 13.0004 11.5 13.4476 11.5 14.0004C11.5 14.5532 11.0528 14.9722 10.5 14.9722H5.5C4.94719 14.9722 4.5 14.5251 4.5 14.0004C4.5 13.4757 4.94719 13.0004 5.5 13.0004H7V3.00037H3V4.00037C3 4.55318 2.55281 5.00037 2 5.00037C1.44719 5.00037 1 4.55318 1 4.00037V2.00037C1 1.44755 1.44719 1.00037 2 1.00037H14C14.5531 1.00037 15 1.44787 15 2.00037Z" fill="#0070CC"/>
</svg>
