<svg width="16" height="16" viewBox="0 0 16 16" fill="none" xmlns="http://www.w3.org/2000/svg">
<path d="M14.6531 1.00351C15.0866 1.00351 15.5025 1.34007 15.5025 1.84851V6.40788C15.5025 6.73882 15.2343 7.00695 14.9035 7.00695H10.3503C9.84157 7.00695 9.5047 6.5907 9.5047 6.15695C9.5047 5.94963 9.58161 5.7382 9.75345 5.56632L14.0378 1.25382C14.2344 1.08038 14.4469 1.00351 14.6531 1.00351Z" fill="#CC0F1F"/>
<path d="M11.5938 11.8001C12.1713 11.8001 12.5928 12.2701 12.5928 12.7988C12.5928 13.8938 10.0431 14.9991 7.99907 14.9991C4.14282 14.9991 1.0022 11.8585 1.0022 8.00224C1.0022 4.14599 4.14282 1.03036 7.99907 1.03036C9.70532 1.03036 11.3209 1.6788 12.5772 2.7688L11.1634 4.18349C10.2816 3.46036 9.16813 3.03849 7.99782 3.03849C5.24501 3.03849 3.00407 5.2788 3.00407 8.03224C3.00407 10.7857 5.24376 12.9969 7.99688 12.9969C10.2813 12.9969 10.7906 11.8001 11.5938 11.8001Z" fill="#CC0F1F"/>
</svg>
