<svg width="16" height="16" viewBox="0 0 16 16" fill="none" xmlns="http://www.w3.org/2000/svg">
<g clip-path="url(#clip0_346_13542)">
<path d="M7 9.82843V13.0004H5.5C4.94719 13.0004 4.5 13.4757 4.5 14.0004C4.5 14.5251 4.94719 14.9722 5.5 14.9722H10.5C10.9525 14.9722 11.3343 14.6914 11.4579 14.2863L10.1719 13.0004H9V11.8284L7 9.82843Z" fill="#80B7E5"/>
<path d="M9 10.4142L7 8.41422V5.58579L9 7.58579V10.4142Z" fill="#80B7E5"/>
<path d="M9 6.17158V3.00037H13V4.00037C13 4.55318 13.4472 5.00037 14 5.00037C14.5528 5.00037 15 4.55318 15 4.00037V2.00037C15 1.44787 14.5531 1.00037 14 1.00037H3.82879L5.82879 3.00037H7V4.17158L9 6.17158Z" fill="#80B7E5"/>
<path d="M4.41458 3.00037H3V4.00037C3 4.12382 2.9777 4.242 2.9369 4.35112L1 2.41422V2.00037C1 1.44755 1.44719 1.00037 2 1.00037H2.41458L4.41458 3.00037Z" fill="#80B7E5"/>
<path d="M0.296875 1.71109C-0.0936496 1.32057 -0.09365 0.6874 0.296874 0.296876V0.296876C0.687398 -0.0936485 1.32056 -0.0936485 1.71109 0.296876L15.7031 14.2889C16.0936 14.6794 16.0936 15.3126 15.7031 15.7031V15.7031C15.3126 16.0936 14.6794 16.0936 14.2889 15.7031L0.296875 1.71109Z" fill="#0070CC"/>
</g>
<defs>
<clipPath id="clip0_346_13542">
<rect width="16" height="16" fill="white"/>
</clipPath>
</defs>
</svg>
