<svg width="16" height="16" viewBox="0 0 16 16" fill="none" xmlns="http://www.w3.org/2000/svg">
<g clip-path="url(#clip0_341_12510)">
<path d="M16 11.5001C16 13.9844 13.9844 16.0001 11.5 16.0001C9.01562 16.0001 7 13.9844 7 11.5001C7 9.01569 9.01562 7.00006 11.5 7.00006C13.9844 7.00006 16 9.01569 16 11.5001ZM12.6469 9.64694L11.5 10.7938L10.3531 9.64694C10.1594 9.45006 9.84063 9.45006 9.64688 9.64694C9.45 9.84069 9.45 10.1594 9.64688 10.3532L10.7937 11.5001L9.64688 12.6469C9.45 12.8407 9.45 13.1594 9.64688 13.3532C9.84063 13.5501 10.1594 13.5501 10.3531 13.3532L11.5 12.2063L12.6469 13.3532C12.8406 13.5501 13.1594 13.5501 13.3531 13.3532C13.55 13.1594 13.55 12.8407 13.3531 12.6469L12.2063 11.5001L13.3531 10.3532C13.55 10.1594 13.55 9.84069 13.3531 9.64694C13.1594 9.45006 12.8406 9.45006 12.6469 9.64694Z" fill="#697586"/>
<path fill-rule="evenodd" clip-rule="evenodd" d="M14 2.00006C14 0.895374 13.1031 6.10352e-05 12 6.10352e-05H2C0.895313 6.10352e-05 0 0.895374 0 2.00006V12.0001C0 13.1032 0.895313 14.0001 2 14.0001H6.57727C6.26564 13.3904 6.06442 12.715 6 12.0001V6.00006H12C12.7149 6.06448 13.3904 6.26571 14 6.57735V2.00006ZM2 2.00006H12V4.00006H2V2.00006ZM2 6.00006V12.0001H4V6.00006H2Z" fill="#B1B4C3"/>
</g>
<defs>
<clipPath id="clip0_341_12510">
<rect width="16" height="16" fill="white"/>
</clipPath>
</defs>
</svg>
