<svg width="16" height="16" viewBox="0 0 16 16" fill="none" xmlns="http://www.w3.org/2000/svg">
<path fill-rule="evenodd" clip-rule="evenodd" d="M2 4.97198H14C14.5528 4.97198 15 4.52511 15 3.9723C15 3.41948 14.5528 2.97198 14 2.97198H2C1.44719 2.97198 1 3.4198 1 3.9723C1 4.5248 1.44719 4.97198 2 4.97198ZM13.5 8.97198H14C14.4829 8.97198 14.8852 8.63096 14.9792 8.1762C14.9335 7.8223 14.8139 7.49166 14.6363 7.20025C14.4635 7.05762 14.2418 6.97198 14 6.97198H10.5208C10.1943 7.39444 10 7.92443 10 8.5V8.97198H11.5V8.5C11.5 7.94688 11.9469 7.5 12.5 7.5C13.0531 7.5 13.5 7.94688 13.5 8.5V8.97198ZM9 8.97198V8.5C9 7.95209 9.12579 7.43365 9.35007 6.97198H2C1.44719 6.97198 1 7.4198 1 7.9723C1 8.5248 1.44719 8.97198 2 8.97198H9ZM8.00019 10.972C8.00006 10.9813 8 10.9906 8 11V12.972H2C1.44719 12.972 1 12.5248 1 11.9723C1 11.4198 1.44719 10.972 2 10.972H8.00019ZM9 12.972V11C9 10.9906 9.00013 10.9813 9.00038 10.972H14C14.5528 10.972 15 11.4195 15 11.9723C15 12.5251 14.5528 12.972 14 12.972H9Z" fill="#80B7E5"/>
<path d="M10 10V8.5C10 7.11875 11.1187 6 12.5 6C13.8813 6 15 7.11875 15 8.5V10C15.5531 10 16 10.4469 16 11V15C16 15.5531 15.5531 16 15 16H10C9.44687 16 9 15.5531 9 15V11C9 10.4469 9.44687 10 10 10ZM11.5 10H13.5V8.5C13.5 7.94687 13.0531 7.5 12.5 7.5C11.9469 7.5 11.5 7.94687 11.5 8.5V10Z" fill="#0070CC"/>
</svg>
