<svg width="16" height="16" viewBox="0 0 16 16" fill="none" xmlns="http://www.w3.org/2000/svg">
<g clip-path="url(#clip0_331_4125)">
<path fill-rule="evenodd" clip-rule="evenodd" d="M12 -3.05176e-05C13.1031 -3.05176e-05 14 0.895282 14 1.99997V7.29941L13.9241 7.34329C13.8548 7.30088 13.7844 7.26025 13.7129 7.22146V6.93447C13.7129 6.35764 13.3056 5.85625 12.7428 5.73789C11.9098 5.55219 11.0552 5.5557 10.2508 5.73842C10.0454 5.782 9.86547 5.87449 9.71847 5.99997H6V12C5.8221 12.3025 5.78824 12.6673 5.88172 12.9828L5.88491 12.9932C5.99335 13.3451 6.13563 13.6817 6.30719 14H2C0.895313 14 0 13.1031 0 12V1.99997C0 0.895282 0.895313 -3.05176e-05 2 -3.05176e-05H12ZM12 1.99997H2V3.99997H12V1.99997ZM2 12V5.99997H4V12H2Z" fill="#80B7E5"/>
<path d="M15.0803 11.9657C15.1623 11.5282 15.1623 11.0751 15.0803 10.6376L15.885 10.1688C15.9787 10.118 16.0217 10.0087 15.9904 9.9032C15.7795 9.23133 15.4201 8.61789 14.9514 8.11008C14.8811 8.03195 14.7639 8.01242 14.6701 8.06711L13.8654 8.53211C13.5254 8.24305 13.1348 8.01648 12.7129 7.86805V6.93445C12.7129 6.82898 12.6348 6.73523 12.5333 6.7157C11.8379 6.55945 11.127 6.56336 10.4629 6.7157C10.3614 6.73523 10.2872 6.82898 10.2872 6.93445V7.8682C9.86528 8.01664 9.47466 8.2432 9.13466 8.53227L8.32716 8.0657C8.23731 8.01102 8.12013 8.03055 8.04591 8.10867C7.57716 8.61648 7.21778 9.22992 7.01059 9.9018C6.97934 10.0073 7.02232 10.1166 7.11216 10.1674L7.91684 10.6362C7.83872 11.0737 7.83872 11.5268 7.91684 11.9643L7.11216 12.433C7.01841 12.4838 6.97934 12.5932 7.01059 12.6987C7.21763 13.3705 7.57716 13.9799 8.04591 14.4918C8.12013 14.5699 8.23341 14.5895 8.32716 14.5348L9.13591 14.0698C9.47591 14.3588 9.86653 14.5854 10.2884 14.7338V15.6676C10.2884 15.773 10.3626 15.8668 10.4642 15.8863C11.1636 16.0426 11.8704 16.0387 12.5345 15.8863C12.6361 15.8668 12.7142 15.773 12.7142 15.6676V14.7338C13.1361 14.5854 13.5267 14.3588 13.8667 14.0698L14.6714 14.5348C14.7612 14.5895 14.8823 14.5699 14.9526 14.4918C15.4214 13.984 15.7808 13.3705 15.9917 12.6987C16.0229 12.5932 15.98 12.4838 15.8862 12.433L15.0803 11.9657ZM11.5022 12.8157C10.6662 12.8157 9.98653 12.136 9.98653 11.3001C9.98653 10.4641 10.6662 9.78445 11.5022 9.78445C12.3381 9.78445 13.0178 10.4641 13.0178 11.3001C13.0178 12.136 12.3397 12.8157 11.5022 12.8157Z" fill="#0070CC"/>
</g>
<defs>
<clipPath id="clip0_331_4125">
<rect width="16" height="16" fill="white"/>
</clipPath>
</defs>
</svg>
