<svg width="16" height="16" viewBox="0 0 16 16" fill="none" xmlns="http://www.w3.org/2000/svg">
<g clip-path="url(#clip0_346_13596)">
<path d="M7.29375 5.70631C7.4875 5.90319 7.74375 6.00006 8 6.00006C8.25625 6.00006 8.51187 5.9024 8.70687 5.70709L10.7069 3.70709C10.9031 3.51256 11 3.25631 11 3.00006C11 2.46725 10.5709 2.00006 10 2.00006C9.74413 2.00006 9.48813 2.09772 9.29313 2.29303L9 2.586V1.00006C9 0.447249 8.55281 6.10352e-05 8 6.10352e-05C7.44719 6.10352e-05 7 0.447249 7 1.00006V2.586L6.70625 2.29319C6.5125 2.09787 6.25625 2.00006 6 2.00006C5.42813 2.00006 5 2.46725 5 3.00006C5 3.25594 5.09766 3.51194 5.29297 3.70694L7.29375 5.70631ZM8.70625 10.2938C8.5125 10.0969 8.25625 10.0001 8 10.0001C7.74375 10.0001 7.48813 10.0974 7.29313 10.2927L5.29313 12.2927C5.09688 12.4876 5 12.7438 5 13.0001C5 13.5329 5.42906 14.0001 6 14.0001C6.25587 14.0001 6.51187 13.9024 6.70687 13.7071L7 13.4157V15.0001C7 15.5529 7.44719 16.0001 8 16.0001C8.55281 16.0001 9 15.5529 9 15.0001V13.4141L9.29297 13.7071C9.4875 13.9032 9.74375 14.0001 10 14.0001C10.5713 14.0001 11 13.5329 11 13.0001C11 12.7442 10.9023 12.4882 10.707 12.2932L8.70625 10.2938Z" fill="#0070CC"/>
<path d="M2 8.97198H14C14.5528 8.97198 15 8.52511 15 7.9723C15 7.41948 14.5528 6.97198 14 6.97198H2C1.44719 6.97198 1 7.4198 1 7.9723C1 8.5248 1.44719 8.97198 2 8.97198Z" fill="#80B7E5"/>
</g>
<defs>
<clipPath id="clip0_346_13596">
<rect width="16" height="16" fill="white"/>
</clipPath>
</defs>
</svg>
