<svg width="16" height="16" viewBox="0 0 16 16" fill="none" xmlns="http://www.w3.org/2000/svg">
<g clip-path="url(#clip0_358_18224)">
<path d="M0.292968 11.293C-0.097656 11.6836 -0.097656 12.3149 0.292968 12.7055L3.29297 15.7064C3.68359 16.0969 4.31484 16.0969 4.70547 15.7064C5.09609 15.3158 5.09609 14.6827 4.70547 14.2921L3.41484 13.0274H8.99922C11.2083 13.0274 12.9992 11.2086 12.9992 9.02738V8.02738C12.9992 8.01796 12.9991 8.00858 12.9989 7.99925H13V3.41487L14.2937 4.7055C14.6844 5.09613 15.3156 5.09613 15.7062 4.7055C16.0969 4.31488 16.0969 3.68362 15.7062 3.293L12.7062 0.293C12.3156 -0.097626 11.6844 -0.097626 11.2937 0.293L8.29374 3.293C7.90312 3.68362 7.90312 4.31488 8.29374 4.7055C8.68437 5.09613 9.31562 5.09613 9.70624 4.7055L11 3.41487V7.98564C10.9995 7.99946 10.9992 8.01337 10.9992 8.02738V9.02738C10.9992 10.1024 10.1039 11.0274 8.99922 11.0274H3.41484L4.70547 9.7055C5.09609 9.31488 5.09609 8.68363 4.70547 8.293C4.31484 7.90238 3.68359 7.90238 3.29297 8.293L0.292968 11.293Z" fill="#0070CC"/>
</g>
<defs>
<clipPath id="clip0_358_18224">
<rect width="16" height="16" fill="white"/>
</clipPath>
</defs>
</svg>
