<svg width="16" height="16" viewBox="0 0 16 16" fill="none" xmlns="http://www.w3.org/2000/svg">
<path d="M2 1C1.44772 1 1 1.44772 1 2V8C1 8.55228 1.44772 9 2 9H6C6.55228 9 7 8.55228 7 8V2C7 1.44772 6.55228 1 6 1H2Z" fill="#D27614"/>
<path d="M2 10C1.44772 10 1 10.4477 1 11V14C1 14.5523 1.44772 15 2 15H6C6.55228 15 7 14.5523 7 14V11C7 10.4477 6.55228 10 6 10H2Z" fill="#D27614"/>
<path d="M9 2C9 1.44772 9.44772 1 10 1H14C14.5523 1 15 1.44772 15 2V5C15 5.55228 14.5523 6 14 6H10C9.44772 6 9 5.55228 9 5V2Z" fill="#D27614"/>
<path d="M10 7C9.44772 7 9 7.44772 9 8V14C9 14.5523 9.44772 15 10 15H14C14.5523 15 15 14.5523 15 14V8C15 7.44772 14.5523 7 14 7H10Z" fill="#D27614"/>
</svg>
