<svg width="16" height="16" viewBox="0 0 16 16" fill="none" xmlns="http://www.w3.org/2000/svg">
<path fill-rule="evenodd" clip-rule="evenodd" d="M1.77777 10.7778V2.77783H14.2222V10.7778H1.77777ZM7.25 4.69231C7.25 4.30865 7.58437 4 8 4C8.41562 4 8.75 4.30865 8.75 4.69231V9.30769C8.75 9.69135 8.41562 10 8 10C7.58437 10 7.25 9.69135 7.25 9.30769V4.69231ZM11 5.84616C10.5844 5.84616 10.25 6.15481 10.25 6.53847V9.3077C10.25 9.69135 10.5844 10 11 10C11.4156 10 11.75 9.69135 11.75 9.3077V6.53847C11.75 6.15481 11.4156 5.84616 11 5.84616ZM5 6.76923C4.58437 6.76923 4.25 7.07788 4.25 7.46153V9.30769C4.25 9.69134 4.58437 10 5 10C5.41563 10 5.75 9.69134 5.75 9.30769V7.46153C5.75 7.07788 5.41563 6.76923 5 6.76923Z" fill="#0070CC"/>
<path d="M9.77777 13.8889H11.7778C12.1472 13.8889 12.4444 14.1876 12.4444 14.5556C12.4444 14.9237 12.1458 15.2223 11.7778 15.2223H4.22222C3.85555 15.2223 3.55555 14.9223 3.55555 14.5556C3.55555 14.1889 3.85555 13.8889 4.22222 13.8889H6.22222L6.66666 12.5556H9.33333L9.77777 13.8889Z" fill="#0070CC"/>
<path d="M14.6667 1.00006H1.33333C0.597222 1.00006 0 1.59728 0 2.33339V11.2223C0 11.9584 0.597222 12.5556 1.33333 12.5556H14.6667C15.4028 12.5556 16 11.9584 16 11.2223V2.33339C16 1.59728 15.4028 1.00006 14.6667 1.00006ZM14.2222 10.7778H1.77778V2.77784H14.2222V10.7778Z" fill="#80B7E5"/>
</svg>
