<svg width="16" height="16" viewBox="0 0 16 16" fill="none" xmlns="http://www.w3.org/2000/svg">
<path d="M0 2.00006C0 1.44778 0.447715 1.00006 1 1.00006H3C3.55228 1.00006 4 1.44778 4 2.00006V14.0001C4 14.5523 3.55228 15.0001 3 15.0001H1C0.447715 15.0001 0 14.5523 0 14.0001V2.00006Z" fill="#80B7E5"/>
<path d="M6 2.00006C6 1.44778 6.44772 1.00006 7 1.00006H9C9.55228 1.00006 10 1.44778 10 2.00006V14.0001C10 14.5523 9.55228 15.0001 9 15.0001H7C6.44772 15.0001 6 14.5523 6 14.0001V2.00006Z" fill="#80B7E5"/>
<path d="M12 2.00006C12 1.44778 12.4477 1.00006 13 1.00006H15C15.5523 1.00006 16 1.44778 16 2.00006V14.0001C16 14.5523 15.5523 15.0001 15 15.0001H13C12.4477 15.0001 12 14.5523 12 14.0001V2.00006Z" fill="#80B7E5"/>
<path d="M0 2.00006C0 1.44778 0.447715 1.00006 1 1.00006H3C3.55228 1.00006 4 1.44778 4 2.00006V3.00006H0V2.00006Z" fill="#0070CC"/>
<path d="M6 2.00006C6 1.44778 6.44772 1.00006 7 1.00006H9C9.55228 1.00006 10 1.44778 10 2.00006V3.00006H6V2.00006Z" fill="#0070CC"/>
<path d="M12 2.00006C12 1.44778 12.4477 1.00006 13 1.00006H15C15.5523 1.00006 16 1.44778 16 2.00006V3.00006H12V2.00006Z" fill="#0070CC"/>
</svg>
