<svg width="16" height="16" viewBox="0 0 16 16" fill="none" xmlns="http://www.w3.org/2000/svg">
<g clip-path="url(#clip0_201_9010)">
<path fill-rule="evenodd" clip-rule="evenodd" d="M7 0C3.13359 0 0 3.13359 0 7C0 10.8664 3.13359 14 7 14C7.33953 14 7.6734 13.9758 8 13.9291V11C8 10.259 8.40199 9.61273 9 9.26716V8.5C9 6.56647 10.5665 5 12.5 5C12.9507 5 13.3814 5.0851 13.777 5.24011C12.9966 2.22576 10.2586 0 7 0ZM7 2.625C7.36367 2.625 7.65625 2.91758 7.65625 3.28125V7C7.65625 7.36367 7.36367 7.65625 7 7.65625H4.15625C3.79258 7.65625 3.5 7.36367 3.5 7C3.5 6.63633 3.79258 6.34375 4.15625 6.34375H6.34375V3.28125C6.34375 2.91758 6.63633 2.625 7 2.625Z" fill="#EEA14F"/>
<path d="M10 10V8.5C10 7.11875 11.1187 6 12.5 6C13.8813 6 15 7.11875 15 8.5V10C15.5531 10 16 10.4469 16 11V15C16 15.5531 15.5531 16 15 16H10C9.44687 16 9 15.5531 9 15V11C9 10.4469 9.44687 10 10 10ZM11.5 10H13.5V8.5C13.5 7.94687 13.0531 7.5 12.5 7.5C11.9469 7.5 11.5 7.94687 11.5 8.5V10Z" fill="#D27614"/>
<path d="M7 2.625C7.36367 2.625 7.65625 2.91758 7.65625 3.28125V7C7.65625 7.36367 7.36367 7.65625 7 7.65625H4.15625C3.79258 7.65625 3.5 7.36367 3.5 7C3.5 6.63633 3.79258 6.34375 4.15625 6.34375H6.34375V3.28125C6.34375 2.91758 6.63633 2.625 7 2.625Z" fill="#683A08"/>
</g>
<defs>
<clipPath id="clip0_201_9010">
<rect width="16" height="16" fill="white"/>
</clipPath>
</defs>
</svg>
