<svg width="16" height="16" viewBox="0 0 16 16" fill="none" xmlns="http://www.w3.org/2000/svg">
<g clip-path="url(#clip0_201_9319)">
<path d="M0 6.99998C0 3.13399 3.13401 -1.52588e-05 7 -1.52588e-05C10.7296 -1.52588e-05 13.778 2.91683 13.9884 6.59379C13.2412 6.21404 12.3956 5.99998 11.5 5.99998C8.46243 5.99998 6 8.46242 6 11.5C6 12.3956 6.21406 13.2412 6.5938 13.9884C2.91685 13.778 0 10.7296 0 6.99998Z" fill="#87BD9B"/>
<path d="M7.65625 3.2812C7.65625 2.91753 7.36367 2.62495 7 2.62495C6.63633 2.62495 6.34375 2.91753 6.34375 3.2812V6.3437H4.15625C3.79258 6.3437 3.5 6.63628 3.5 6.99995C3.5 7.36363 3.79258 7.6562 4.15625 7.6562H7C7.36367 7.6562 7.65625 7.36363 7.65625 6.99995V3.2812Z" fill="#0A4D21"/>
<path d="M7 11.5C7 9.01559 9.01562 6.99997 11.5 6.99997C13.9844 6.99997 16 9.01559 16 11.5C16 13.9843 13.9844 16 11.5 16C9.01562 16 7 13.9843 7 11.5ZM13.6031 10.8531C13.8 10.6593 13.8 10.3406 13.6031 10.1468C13.4094 9.94997 13.0906 9.94997 12.8969 10.1468L11 12.0437L10.1031 11.1468C9.90937 10.95 9.59063 10.95 9.39688 11.1468C9.2 11.3406 9.2 11.6593 9.39688 11.8531L10.6469 13.1031C10.8406 13.3 11.1594 13.3 11.3531 13.1031L13.6031 10.8531Z" fill="#0F7B38"/>
</g>
<defs>
<clipPath id="clip0_201_9319">
<rect width="16" height="16" fill="white"/>
</clipPath>
</defs>
</svg>
