<svg width="16" height="16" viewBox="0 0 16 16" fill="none" xmlns="http://www.w3.org/2000/svg">
<path d="M7.88233 1C8.2611 1 8.60737 1.214 8.77676 1.55279L9.22397 2.44721C9.39337 2.786 9.73963 3 10.1184 3H13.1053C13.6149 3 14.0429 3.38316 14.0992 3.88961L14.8767 10.8896C14.9425 11.482 14.4788 12 13.8828 12H8.1184C7.73963 12 7.39337 11.786 7.22397 11.4472L6.77676 10.5528C6.60737 10.214 6.2611 10 5.88233 10H3.00037V1H7.88233Z" fill="#EEA14F"/>
<path d="M1 1C1 0.447715 1.44772 0 2 0V0C2.55228 0 3 0.447715 3 1V15C3 15.5523 2.55228 16 2 16V16C1.44772 16 1 15.5523 1 15V1Z" fill="#D27614"/>
</svg>
