<svg width="16" height="16" viewBox="0 0 16 16" fill="none" xmlns="http://www.w3.org/2000/svg">
<g clip-path="url(#clip0_201_9102)">
<path d="M7 0C3.13401 0 0 3.13401 0 7C0 10.866 3.13401 14 7 14C7.53134 14 8.04886 13.9408 8.54631 13.8286C8.90568 13.7476 9.2186 13.5359 9.46119 13.2586L10.1446 12.4776C10.6356 11.9165 10.6399 11.0798 10.1546 10.5137L8.24287 8.28335C8.08615 8.1005 8 7.86763 8 7.62681V7.60609C8 7.21802 8.15416 6.84584 8.42857 6.57143V6.57143C8.79445 6.20555 9.29069 6 9.80812 6H12.7759C13.3845 6 13.8566 5.45684 13.6722 4.87682C12.7731 2.04882 10.1258 0 7 0Z" fill="#B7A9D1"/>
<path fill-rule="evenodd" clip-rule="evenodd" d="M16 7.73675C16 7.32984 15.6701 6.99997 15.2632 6.99997H9.73679C9.32987 6.99997 9 7.32984 9 7.73676C9 7.90696 9.05893 8.07192 9.16678 8.2036L11.8666 11.5L9.16678 14.7963C9.05893 14.928 9 15.093 9 15.2632C9 15.6701 9.32987 16 9.73679 16H15.2632C15.6701 16 16 15.6701 16 15.2632C16 15.093 15.9411 14.928 15.8332 14.7963L13.1334 11.5L15.8332 8.2036C15.9411 8.07192 16 7.90696 16 7.73675ZM12.5 10.5L11 8.49997L14 8.49996L12.5 10.5ZM11 14.5L12.5 12.5L14 14.5H11Z" fill="#7E5DBB"/>
<path d="M7 2.62497C7.36367 2.62497 7.65625 2.91755 7.65625 3.28122V6.99997C7.65625 7.36364 7.36367 7.65622 7 7.65622H4.15625C3.79258 7.65622 3.5 7.36364 3.5 6.99997C3.5 6.6363 3.79258 6.34372 4.15625 6.34372H6.34375V3.28122C6.34375 2.91755 6.63633 2.62497 7 2.62497Z" fill="#523681"/>
</g>
<defs>
<clipPath id="clip0_201_9102">
<rect width="16" height="16" fill="white"/>
</clipPath>
</defs>
</svg>
