<svg width="16" height="16" viewBox="0 0 16 16" fill="none" xmlns="http://www.w3.org/2000/svg">
<path d="M15.9033 8.08183C14.397 5.05082 11.4147 3.00006 8 3.00006C4.58527 3.00006 1.60221 5.05225 0.0966517 8.08212C0.0331076 8.21174 0 8.35496 0 8.5002C0 8.64545 0.0331076 8.78867 0.0966517 8.91829C1.60304 11.9493 4.58527 14.0001 8 14.0001C11.4147 14.0001 14.3978 11.9479 15.9033 8.918C15.9669 8.78838 16 8.64517 16 8.49992C16 8.35467 15.9669 8.21146 15.9033 8.08183ZM8 12.6251C7.20887 12.6251 6.43551 12.3831 5.77771 11.9299C5.11992 11.4766 4.60723 10.8324 4.30447 10.0786C4.00172 9.32489 3.92251 8.49549 4.07685 7.69531C4.23119 6.89514 4.61216 6.16014 5.17157 5.58325C5.73098 5.00635 6.44371 4.61349 7.21964 4.45432C7.99556 4.29516 8.79983 4.37685 9.53074 4.68906C10.2616 5.00127 10.8864 5.52998 11.3259 6.20833C11.7654 6.88669 12 7.68421 12 8.50006C12.0003 9.04184 11.897 9.57836 11.696 10.0789C11.4951 10.5795 11.2005 11.0344 10.829 11.4175C10.4575 11.8006 10.0165 12.1044 9.53104 12.3116C9.04562 12.5188 8.52536 12.6253 8 12.6251Z" fill="#80B7E5"/>
<path d="M8 5.75007C7.76198 5.7535 7.5255 5.79002 7.29694 5.85864C7.48534 6.12266 7.57575 6.44756 7.55177 6.77443C7.52779 7.10129 7.39102 7.40847 7.16625 7.64026C6.94148 7.87205 6.64361 8.0131 6.32665 8.03783C6.00969 8.06256 5.69463 7.96932 5.43861 7.77504C5.29282 8.32894 5.31914 8.91603 5.51385 9.45369C5.70857 9.99135 6.06188 10.4525 6.52406 10.7722C6.98623 11.092 7.534 11.2542 8.09027 11.2361C8.64654 11.218 9.18328 11.0204 9.62497 10.6712C10.0667 10.322 10.391 9.83881 10.5525 9.28954C10.7139 8.74028 10.7042 8.15265 10.5248 7.60935C10.3454 7.06605 10.0053 6.59444 9.5524 6.26091C9.09948 5.92738 8.55654 5.74872 8 5.75007Z" fill="#0070CC"/>
</svg>
