<svg width="16" height="16" viewBox="0 0 16 16" fill="none" xmlns="http://www.w3.org/2000/svg">
<g clip-path="url(#clip0_201_9318)">
<path d="M0 6.99998C0 3.13399 3.13401 -1.52588e-05 7 -1.52588e-05C10.7296 -1.52588e-05 13.778 2.91683 13.9884 6.59379C13.2412 6.21404 12.3956 5.99998 11.5 5.99998C8.46243 5.99998 6 8.46242 6 11.5C6 12.3956 6.21406 13.2412 6.5938 13.9884C2.91685 13.778 0 10.7296 0 6.99998Z" fill="#EEA14F"/>
<path fill-rule="evenodd" clip-rule="evenodd" d="M11.5 16C13.9844 16 16 13.9844 16 11.5C16 9.01561 13.9844 6.99998 11.5 6.99998C9.01562 6.99998 7 9.01561 7 11.5C7 13.9844 9.01562 16 11.5 16ZM10.5 9.24998C10.2239 9.24998 10 9.47384 10 9.74998V13.25C10 13.5261 10.2239 13.75 10.5 13.75C10.7761 13.75 11 13.5261 11 13.25V9.74998C11 9.47384 10.7761 9.24998 10.5 9.24998ZM12 9.74998C12 9.47384 12.2239 9.24998 12.5 9.24998C12.7761 9.24998 13 9.47384 13 9.74998V13.25C13 13.5261 12.7761 13.75 12.5 13.75C12.2239 13.75 12 13.5261 12 13.25V9.74998Z" fill="#D27614"/>
<path d="M7.65625 3.28123C7.65625 2.91756 7.36367 2.62498 7 2.62498C6.63633 2.62498 6.34375 2.91756 6.34375 3.28123V6.34373H4.15625C3.79258 6.34373 3.5 6.63631 3.5 6.99998C3.5 7.36366 3.79258 7.65623 4.15625 7.65623H7C7.36367 7.65623 7.65625 7.36366 7.65625 6.99998V3.28123Z" fill="#683A08"/>
</g>
<defs>
<clipPath id="clip0_201_9318">
<rect width="16" height="16" fill="white"/>
</clipPath>
</defs>
</svg>
