<svg width="16" height="16" viewBox="0 0 16 16" fill="none" xmlns="http://www.w3.org/2000/svg">
<g clip-path="url(#clip0_201_9009)">
<path d="M0 8C0 3.58125 3.58125 0 8 0C12.4187 0 16 3.58125 16 8C16 12.4187 12.4187 16 8 16C3.58125 16 0 12.4187 0 8ZM8.75 3.75C8.75 3.33437 8.41563 3 8 3C7.58437 3 7.25 3.33437 7.25 3.75V7.25H4.75C4.33437 7.25 4 7.58437 4 8C4 8.41563 4.33437 8.75 4.75 8.75H8C8.41563 8.75 8.75 8.41563 8.75 8V3.75Z" fill="#80B7E5"/>
<path d="M8 3C8.41563 3 8.75 3.33437 8.75 3.75V8C8.75 8.41563 8.41563 8.75 8 8.75H4.75C4.33437 8.75 4 8.41563 4 8C4 7.58437 4.33437 7.25 4.75 7.25H7.25V3.75C7.25 3.33437 7.58437 3 8 3Z" fill="#00437A"/>
</g>
<defs>
<clipPath id="clip0_201_9009">
<rect width="16" height="16" fill="white"/>
</clipPath>
</defs>
</svg>
