<svg width="16" height="16" viewBox="0 0 16 16" fill="none" xmlns="http://www.w3.org/2000/svg">
<path d="M12.5 2H10C11.1047 2 12 2.89531 12 4V4.5C12 4.775 11.775 5 11.5 5H4.5C4.22375 5 4 4.775 4 4.5V4C4 2.89531 4.89531 2 6 2H3.5C2.67156 2 2 2.67156 2 3.5V14.5C2 15.3281 2.67156 16 3.5 16H12.5C13.3284 16 14 15.3284 14 14.5V3.5C14 2.67156 13.3281 2 12.5 2ZM10.8406 8.7125L8.09062 12.2125C7.96416 12.3736 7.7775 12.4762 7.57406 12.4957C7.55 12.4719 7.525 12.5 7.47188 12.5C7.29366 12.5 7.12031 12.4365 6.98375 12.3193L5.23375 10.8193C4.91938 10.5498 4.88313 10.0762 5.15269 9.76184C5.42172 9.44747 5.8955 9.41122 6.21019 9.68078L7.36581 10.6711L9.63206 7.78734C9.88794 7.46109 10.3602 7.40547 10.6852 7.66041C11.0406 7.91562 11.0969 8.3875 10.8406 8.7125Z" fill="#87BD9B"/>
<path d="M10 2C10 0.895313 9.10469 0 8 0C6.89531 0 6 0.895313 6 2C4.89531 2 4 2.89531 4 4V4.5C4 4.775 4.22375 5 4.5 5H11.5C11.775 5 12 4.775 12 4.5V4C12 2.89531 11.1031 2 10 2ZM8 2.75C7.58437 2.75 7.25 2.41406 7.25 2C7.25 1.58562 7.58594 1.25 8 1.25C8.41406 1.25 8.75 1.58562 8.75 2C8.75 2.41406 8.41563 2.75 8 2.75ZM9.65938 7.7875L7.39313 10.6713L6.2375 9.68125C5.92188 9.4125 5.45 9.44687 5.18125 9.7625C4.91172 10.0769 4.94784 10.5506 5.26231 10.82L7.01231 12.32C7.14687 12.4094 7.32188 12.5 7.47188 12.5C7.49629 12.5 7.52069 12.499 7.54513 12.4961C7.74875 12.4766 7.93512 12.374 8.06169 12.2129L10.8117 8.71291C11.0676 8.38759 11.0109 7.91603 10.6852 7.66009C10.3875 7.37813 9.91563 7.4625 9.65938 7.7875Z" fill="#0F7B38"/>
</svg>
