<svg width="16" height="16" viewBox="0 0 16 16" fill="none" xmlns="http://www.w3.org/2000/svg">
<path fill-rule="evenodd" clip-rule="evenodd" d="M12 2.25006C12 2.65902 11.8036 3.0221 11.5 3.25015V9.24997C11.8036 9.47802 12 9.84111 12 10.2501C12 10.9404 11.4404 11.5001 10.75 11.5001C10.341 11.5001 9.97796 11.3037 9.74991 11.0001H2.25009C2.02204 11.3037 1.65895 11.5001 1.25 11.5001C0.559644 11.5001 0 10.9404 0 10.2501C0 9.84111 0.196388 9.47802 0.5 9.24997V3.25015C0.196388 3.0221 0 2.65902 0 2.25006C0 1.55971 0.559644 1.00006 1.25 1.00006C1.65895 1.00006 2.02204 1.19645 2.25009 1.50006H9.74991C9.97796 1.19645 10.341 1.00006 10.75 1.00006C11.4404 1.00006 12 1.55971 12 2.25006ZM2 3.25015V9.24997C2.0947 9.3211 2.17896 9.40536 2.25009 9.50006H9.74991C9.82104 9.40536 9.9053 9.3211 10 9.24997V3.25015C9.9053 3.17902 9.82104 3.09476 9.74991 3.00006H2.25009C2.17896 3.09476 2.0947 3.17902 2 3.25015Z" fill="#0070CC"/>
<path d="M4.5 12.0001V12.75C4.19639 12.978 4 13.3411 4 13.7501C4 14.4404 4.55964 15.0001 5.25 15.0001C5.65895 15.0001 6.02204 14.8037 6.25009 14.5001H13.7499C13.978 14.8037 14.341 15.0001 14.75 15.0001C15.4404 15.0001 16 14.4404 16 13.7501C16 13.3411 15.8036 12.978 15.5 12.75V6.75015C15.8036 6.5221 16 6.15902 16 5.75006C16 5.05971 15.4404 4.50006 14.75 4.50006C14.341 4.50006 13.978 4.69645 13.7499 5.00006H12.5V6.50006H13.7499C13.821 6.59476 13.9053 6.67902 14 6.75015V12.75C13.9053 12.8211 13.821 12.9054 13.7499 13.0001H6.25009C6.17896 12.9054 6.0947 12.8211 6 12.75V12.0001H4.5Z" fill="#80B7E5"/>
</svg>
